<?xml version="1.0" encoding="utf-8"?>
<!-- Generator: Adobe Illustrator 27.0.0, SVG Export Plug-In . SVG Version: 6.00 Build 0)  -->
<svg version="1.1" id="svg" xmlns="http://www.w3.org/2000/svg" xmlns:xlink="http://www.w3.org/1999/xlink" x="0px" y="0px"
	 viewBox="0 0 400 147.9" style="enable-background:new 0 0 400 147.9;" xml:space="preserve">
<style type="text/css">
	.st0{fill-rule:evenodd;clip-rule:evenodd;fill:#0C2454;}
	.st1{fill-rule:evenodd;clip-rule:evenodd;fill:#B59630;}
	.st2{fill:none;}
	.st3{fill-rule:evenodd;clip-rule:evenodd;fill:#8E7636;}
</style>
<g id="svgg">
	<path id="path0" class="st0" d="M141,8.4L141,8.4c0.1,0,0.1,0,0.2,0H141z"/>
	<polygon class="st0" points="196.2,65.6 188.6,65.6 192.2,49.1 	"/>
	<path class="st0" d="M251.9,23.8c-0.3-0.2-0.7-0.4-1.2-0.6c-0.3-0.2-0.7-0.3-1-0.5c-0.2-0.1-0.4-0.2-0.6-0.4
		c-0.2-0.1-0.5-0.3-0.7-0.4c-0.2-0.1-0.5-0.3-0.7-0.4c-0.5-0.3-0.9-0.6-1.3-1c-1.1-0.9-2-2-2.8-3.3c-0.5-0.9-1-1.9-1.5-3.1
		c-0.2-0.5-0.4-1-0.5-1.2c0-0.1-0.1-0.2-0.1-0.3c-0.1-0.1-0.1-0.2-0.1-0.3c0-0.1-0.1-0.2,0-0.3c0,0,0,0,0-0.1c0,0,0-0.1,0-0.1
		c0,0,0-0.1,0.1-0.1c0,0,0,0,0.1,0c0,0,0,0,0.1,0c0,0,0.1,0,0.1,0c0.1,0,0.1,0,0.2,0c0.1,0,0.2,0,0.3,0c0.5,0,1.1,0,1.8,0.1
		c0.1,0,0.3,0,0.4,0.1c0.1,0,0.3,0,0.4,0.1c0.6,0.1,1.1,0.2,1.5,0.4c0.3,0.1,0.6,0.2,0.9,0.4c0,0,0,0,0.1,0c1.6,0.8,3,2,4.2,3.5
		c0.2,0.2,0.4,0.5,0.5,0.8c0,0.1,0.1,0.1,0.1,0.2c0.2,0.3,0.3,0.5,0.5,0.6c0.3,0.1,0.3-1.1,0.2-4.8l0-4.3l-55.8,0l-55.5,0
		c-0.1,0-0.2,0-0.2,0v10.2l0.4-0.8c0.2-0.3,0.4-0.7,0.6-1c0.2-0.3,0.3-0.5,0.5-0.8c0.1-0.1,0.1-0.2,0.2-0.3c0.2-0.3,0.4-0.5,0.6-0.7
		c0.3-0.3,0.6-0.6,0.9-0.8c0,0,0,0,0.1,0c1-0.9,2-1.5,3.2-1.9c0.1,0,0.2-0.1,0.2-0.1c0.6-0.2,1.2-0.4,1.7-0.5c1-0.1,1.8-0.2,2.3-0.2
		c0.1,0,0.2,0,0.3,0c0.4,0,0.6,0.1,0.6,0.4c0,0,0,0.1,0,0.1c0,0.1,0,0.3-0.1,0.4c0,0.1-0.1,0.2-0.1,0.3c0,0.1-0.1,0.3-0.2,0.5
		c-0.2,0.5-0.4,1-0.6,1.4c0,0.1-0.1,0.2-0.1,0.3c0,0.1-0.1,0.1-0.1,0.2c0,0,0,0.1-0.1,0.2c-0.4,0.8-0.8,1.5-1.2,2.2
		c-0.1,0.1-0.1,0.2-0.2,0.3c-0.2,0.2-0.3,0.4-0.5,0.6c-0.3,0.4-0.6,0.8-1,1.2c-0.3,0.3-0.8,0.7-1.3,1.1c0,0-0.1,0.1-0.1,0.1
		c-0.3,0.2-0.6,0.4-0.9,0.6c-0.2,0.2-0.5,0.3-0.7,0.5c0,0-0.1,0.1-0.1,0.1c-1.2,0.8-2.4,1.4-2.9,1.5c0,0,0,0,0,0l-0.5,0.2
		c0,0,0,0,0,0c-0.1,0-0.2,0.1-0.3,0.1c0,0-0.1,0-0.1,0.1l-0.3,0.2l0,34.2c0,21.1,0.1,31.5,0.2,34.8c0,0,0,0,0,0.1c0,0.1,0,0.1,0,0.2
		c0.1,0.7,0.1,1.5,0.2,2v0c0.1,0.6,0.2,1.2,0.3,1.9c0,0.1,0,0.2,0,0.3c0,0.1,0,0.1,0,0.2c0.2,1.1,0.5,2.3,0.8,4.1
		c0.1,0.4,0.2,1,0.4,1.7c0,0,0,0.1,0,0.2c0,0,0,0.1,0,0.1c0.1,0.3,0.2,0.7,0.4,1.3c0.5,1.7,1.4,4,2.3,6.1c0,0,0,0,0,0.1
		c0.1,0.3,0.3,0.6,0.4,0.8c0.2,0.3,0.3,0.7,0.5,1c0.5,1.1,1.1,2.1,1.5,2.8c0.1,0.2,0.2,0.4,0.3,0.5c0,0,0,0,0,0
		c0.1,0.2,0.2,0.3,0.3,0.5c0.1,0.1,0.1,0.2,0.2,0.3c1.2,2.1,1.7,2.6,1.9,2.5c0.6-0.3,1.1-0.1,2.1,1c0,0,0,0,0,0c1,1,2.3,2.5,3.5,4.3
		c0.2,0.3,0.4,0.6,0.6,1c0,0.1,0.1,0.2,0.1,0.3c0,0.1,0.1,0.2,0.1,0.2c0.4,0.7,0.8,1.3,1,1.9c0,0,0,0,0,0.1c0.2,0.5,1.1,1.5,2.3,2.5
		c0,0,0.1,0.1,0.1,0.1c2.3,1.9,3.3,2.7,4.7,3.6c0.6,0.4,1,0.7,1.3,0.9c0.3,0.2,0.6,0.4,0.9,0.5c0.1,0,0.3,0.1,0.4,0.2
		c0.1,0,0.1,0.1,0.1,0.1c0.4,0.2,1,0.6,1.4,0.8c0.1,0,0.1,0.1,0.2,0.1s0.2,0.1,0.3,0.1c0.2,0.1,0.4,0.2,0.6,0.3
		c1.4,0.7,3.5,1.7,4.2,2c0.1,0,0.1,0,0.2,0.1c0,0,0.1,0,0.1,0c0.1,0,0.2,0.1,0.2,0.1c0.2,0.1,0.4,0.2,0.6,0.2c0,0,0,0,0.1,0
		c0,0,0.1,0,0.1,0c0.1,0,0.1,0,0.2,0.1c0.3,0.1,0.7,0.3,1.1,0.4c0,0,0,0,0,0c0.4,0.1,1.1,0.3,1.6,0.5c0,0,0,0,0.1,0c0,0,0.1,0,0.1,0
		c0.5,0.2,1.1,0.3,1.7,0.5c0.1,0,0.2,0,0.3,0.1c0.2,0,0.3,0.1,0.5,0.1c0.1,0,0.2,0.1,0.2,0.1c0.4,0.1,0.8,0.2,1.2,0.3c0,0,0,0,0,0
		c0.2,0,0.4,0.1,0.7,0.2c0.1,0,0.3,0.1,0.4,0.1c0.3,0.1,0.6,0.1,0.9,0.2l0.1,0c0,0,0.1,0,0.1,0c0,0,0.1,0,0.1,0c0.1,0,0.1,0,0.2,0
		c0,0,0.1,0,0.1,0c0,0,0,0,0,0c1.5,0.3,3.2,0.5,4.8,0.7c2.8,0.3,9.6,0.3,12.5,0c0.1,0,0.2,0,0.3,0c0.1,0,0.1,0,0.2,0
		c0.7-0.1,1.2-0.2,1.8-0.2c0,0,0,0,0,0c0.2,0,0.4-0.1,0.8-0.2c0.3,0,0.6-0.1,0.9-0.1c0.1,0,0.1,0,0.2,0c0.4-0.1,0.8-0.2,1.2-0.2
		c0,0,0,0,0,0c0,0,0.1,0,0.2,0c0.7-0.2,1.5-0.4,2.7-0.7c1-0.3,1.8-0.5,2.5-0.7c0.2-0.1,0.5-0.2,0.7-0.2c0.2-0.1,0.5-0.2,0.7-0.2
		c0.2-0.1,0.4-0.2,0.6-0.2c0.2-0.1,0.3-0.1,0.5-0.2c0.4-0.2,0.7-0.3,0.9-0.4c0,0,0.1,0,0.1,0c0.2-0.1,0.4-0.2,0.7-0.3c0,0,0,0,0,0
		c0,0,0.1,0,0.1-0.1c0.1-0.1,0.3-0.1,0.4-0.2c0.1,0,0.1-0.1,0.2-0.1c0,0,0.1,0,0.1,0c0.4-0.2,0.9-0.4,1.2-0.6
		c0.3-0.1,0.6-0.3,0.9-0.4c0.4-0.2,0.8-0.4,1.2-0.6c0.2-0.1,0.4-0.2,0.7-0.3c0.4-0.2,0.7-0.4,0.9-0.5c0.1-0.1,0.3-0.1,0.4-0.2
		c0.5-0.3,1.1-0.6,1.6-0.9c0.1-0.1,0.2-0.2,0.3-0.2c0.1-0.1,0.2-0.1,0.3-0.2c0,0,0,0,0,0c0.1-0.1,0.3-0.2,0.4-0.3
		c0.1,0,0.2-0.1,0.2-0.1c0.1-0.1,0.2-0.2,0.4-0.2c0.1,0,0.1-0.1,0.2-0.1c1.1-0.8,2.9-2.1,4.3-3.2c0.2-0.1,0.3-0.3,0.5-0.4
		c1.7-1.5,2.9-2.8,3.5-3.9c0.1-0.1,0.1-0.2,0.2-0.4c0.1-0.2,0.3-0.5,0.4-0.7c0.2-0.5,0.5-0.9,0.7-1.2c0.2-0.3,0.5-0.7,0.8-1.1
		c0,0,0.1-0.1,0.1-0.1c1.1-1.5,2.2-2.8,3.1-3.5c0,0,0.1-0.1,0.1-0.1c0.3-0.3,0.6-0.5,0.7-0.6c0.3-0.1,0.4-0.2,0.6-0.1
		c0.3-0.1,0.7-0.5,1.4-1.4c0,0,0.1-0.1,0.1-0.2c0.1-0.1,0.1-0.2,0.2-0.3c0.1-0.1,0.2-0.2,0.2-0.4c0.1-0.1,0.2-0.3,0.2-0.4
		c0.3-0.5,0.6-1,1-1.7c0,0,0,0,0,0c0.1-0.2,0.2-0.5,0.4-0.8c0,0,0.1-0.1,0.1-0.1c0,0,0,0,0,0c0.1-0.1,0.1-0.2,0.2-0.4
		c0-0.1,0.1-0.2,0.1-0.3c0,0,0,0,0-0.1c0-0.1,0-0.1,0.1-0.2v0c0.2-0.3,0.3-0.6,0.5-1c0,0,0-0.1,0.1-0.1c0.1-0.3,0.3-0.7,0.5-1.2
		c0.3-0.6,0.5-1.2,0.8-1.8c0-0.1,0.1-0.2,0.1-0.3c0,0,0-0.1,0-0.1c0-0.1,0-0.3,0.1-0.3c0,0,0.1-0.1,0.1-0.2c0,0,0,0,0,0
		c0.1-0.3,0.2-0.6,0.4-0.9c0-0.1,0.1-0.3,0.2-0.4c0,0,0,0,0-0.1c0.4-1.2,0.9-2.9,1.4-4.5c0-0.1,0-0.1,0.1-0.2c0.1-0.5,0.3-1,0.4-1.5
		c0,0,0-0.1,0-0.1c0.1-0.5,0.2-1,0.3-1.4c0,0,0,0,0-0.1c0-0.3,0.1-0.7,0.2-1c0.1-0.5,0.2-1,0.3-1.5c0,0,0,0,0-0.1c0-0.1,0-0.2,0-0.2
		c0-0.1,0-0.2,0-0.3c0-0.1,0-0.2,0-0.3c0.1-1,0.2-2.3,0.3-4.6c0-0.2,0-0.3,0-0.5c0-0.1,0-0.3,0-0.5c0-0.3,0-0.6,0-0.9
		c0-6.3,0.1-17.6,0.1-30.3c0-3.7,0-7,0-10c0-0.4,0-0.7,0-1c0-13.5,0-23.3,0-23.5C252.6,24.3,252.3,24.1,251.9,23.8z M228.4,98.6
		h-32.7V85.2h5.1l-1.6-6.8h-13.5l-1.6,6.8h5.5v13.4h-26.2V85.2h4.8l12-53.8h30.2l12.9,53.8h4.9V98.6z"/>
	<path class="st0" d="M141.4,95.4c0-0.3-0.1-0.7-0.1-1.1c0-0.2,0-0.5,0-1c0,0.1,0,0.1,0,0.2C141.3,94.2,141.4,94.9,141.4,95.4z"/>
	<path class="st0" d="M141.8,23.9c-0.1,0-0.2,0.1-0.3,0.1L141.8,23.9z"/>
	<path class="st0" d="M144.3,14.2c-0.5,0.5-1,1-1.5,1.6c0.2-0.3,0.4-0.5,0.6-0.7C143.6,14.8,143.9,14.5,144.3,14.2z"/>
	<path class="st0" d="M145.2,22.1c-1.2,0.8-2.4,1.4-2.9,1.5l0.6-0.3C143.8,22.9,144.5,22.5,145.2,22.1z"/>
	<path class="st0" d="M143.6,105.1c0.5,1.7,1.4,4,2.3,6.1c-0.4-0.8-0.7-1.6-0.9-2.1c-0.4-1-0.8-2-0.8-2.2c-0.2-0.4-0.6-1.8-1-3.1
		C143.3,104.2,143.4,104.6,143.6,105.1z"/>
	<path class="st0" d="M149.4,18.5c-0.3,0.4-0.6,0.8-1,1.2c-0.3,0.3-0.8,0.7-1.3,1.1C148,20.1,148.8,19.4,149.4,18.5z"/>
	<path class="st0" d="M151.7,11.5c-0.4,0-0.8,0-1.4,0.1c-0.9,0.1-1.8,0.2-2.6,0.5c0.6-0.2,1.2-0.4,1.7-0.5
		C150.5,11.6,151.2,11.5,151.7,11.5z"/>
	<path class="st0" d="M156.6,125c-1-1.5-2.3-3.1-3.5-4.3C154.2,121.7,155.4,123.2,156.6,125z"/>
	<path class="st0" d="M166.9,135.5c-2-1.2-4.3-3-6-4.5c2.3,1.9,3.3,2.7,4.7,3.6C166.2,135,166.6,135.3,166.9,135.5z"/>
	<path class="st0" d="M168.4,136.4c-0.2-0.1-0.4-0.2-0.5-0.3c0,0,0,0-0.1-0.1c0.1,0,0.3,0.1,0.4,0.2
		C168.3,136.3,168.4,136.4,168.4,136.4z"/>
	<path class="st0" d="M175.6,140c0,0-0.1,0-0.1,0c-0.1,0-0.1-0.1-0.2-0.1c0,0,0.1,0,0.1,0C175.5,140,175.6,140,175.6,140z"/>
	<path class="st0" d="M179.3,141.3c-0.6-0.2-1.1-0.4-1.6-0.5C178.1,140.9,178.8,141.1,179.3,141.3z"/>
	<path class="st0" d="M184.4,142.7c-0.3-0.1-0.7-0.2-1-0.2c0,0-0.1,0-0.1,0c0.2,0,0.4,0.1,0.7,0.2
		C184.1,142.7,184.3,142.7,184.4,142.7z"/>
	<path class="st0" d="M185.8,143c-0.2,0-0.4-0.1-0.5-0.1c0.1,0,0.2,0,0.3,0.1C185.7,143,185.7,143,185.8,143z"/>
	<path class="st0" d="M207.1,143.3c-0.5,0.1-1,0.2-1.7,0.2c0.2,0,0.5-0.1,0.8-0.2C206.6,143.4,206.9,143.3,207.1,143.3z"/>
	<path class="st0" d="M217.3,140.3c-0.5,0.2-0.9,0.4-1.4,0.5c0.2-0.1,0.3-0.1,0.5-0.2C216.8,140.5,217.1,140.3,217.3,140.3z"/>
	<path class="st0" d="M218.7,139.7c-0.2,0.1-0.3,0.2-0.4,0.2C218.4,139.8,218.5,139.8,218.7,139.7z"/>
	<path class="st0" d="M226,135.9c-0.1,0.1-0.2,0.1-0.3,0.2C225.8,135.9,225.9,135.9,226,135.9z"/>
	<path class="st0" d="M227,135.2c-0.2,0.1-0.5,0.3-0.7,0.4c0.1-0.1,0.3-0.2,0.4-0.3C226.9,135.3,226.9,135.3,227,135.2z"/>
	<path class="st0" d="M231.8,131.7c-1.3,1.1-2.7,2.1-4.3,3.2C228.7,134.1,230.4,132.8,231.8,131.7z"/>
	<path class="st0" d="M237.9,124.1c-0.5,0.7-1,1.5-1.5,2.3c0.2-0.5,0.5-0.9,0.7-1.2C237.3,124.9,237.6,124.5,237.9,124.1z"/>
	<path class="st0" d="M241.3,12.4c-0.1-0.2-0.1-0.3,0-0.4C241.2,12.1,241.2,12.2,241.3,12.4z"/>
	<path class="st0" d="M241.5,11.7c0,0-0.1,0-0.1,0.1C241.4,11.7,241.4,11.7,241.5,11.7C241.5,11.7,241.5,11.7,241.5,11.7z"/>
	<path class="st0" d="M242.6,119.6c-0.1,0-0.1,0-0.2,0c-0.3,0-0.7,0.2-1.2,0.6c0.3-0.3,0.6-0.5,0.7-0.6
		C242.2,119.6,242.3,119.5,242.6,119.6z"/>
	<path class="st0" d="M244.4,117.4c-0.1,0.2-0.3,0.4-0.4,0.6c0-0.1,0.1-0.2,0.2-0.3C244.3,117.6,244.3,117.5,244.4,117.4z"/>
	<path class="st0" d="M246.1,114.5c-0.1,0.2-0.2,0.4-0.3,0.5c-0.1,0.1-0.1,0.2-0.2,0.3C245.7,115.1,245.9,114.8,246.1,114.5z"/>
	<path class="st0" d="M247,12.6c-0.8-0.4-1.5-0.6-2.3-0.8c0.6,0.1,1.1,0.2,1.5,0.4C246.5,12.3,246.8,12.4,247,12.6z"/>
	<path class="st0" d="M248.5,109.4c-0.2,0.6-0.8,1.8-1.3,3c0.1-0.3,0.3-0.7,0.5-1.2C248,110.6,248.3,110,248.5,109.4z"/>
	<path class="st0" d="M249.3,107.4c-0.1,0.4-0.3,0.7-0.4,0.9C249.1,108.1,249.2,107.8,249.3,107.4z"/>
	<path class="st0" d="M251.8,98.1c0,0.2-0.1,0.5-0.1,0.8c0,0.1,0,0.2,0,0.2C251.7,98.8,251.7,98.4,251.8,98.1z"/>
	<path class="st0" d="M252.4,17.6c-0.1,0-0.3-0.2-0.5-0.6C252.1,17.3,252.3,17.5,252.4,17.6z"/>
	<path class="st0" d="M252.6,49c0,3.2,0,6.7,0,10.2c0,17.6,0,26.3-0.1,31.1c0-6,0.1-17.9,0.1-31.3C252.6,55.2,252.6,51.9,252.6,49z"
		/>
	<path id="path2" class="st1" d="M285.7,72.6C285.7,72.6,285.7,72.6,285.7,72.6c-0.2-0.2-0.3-0.2-0.4-0.2c-0.4-0.1-1.1,0.1-2,0.6
		c-2.7,1.3-5.3,4-8.4,9c-0.7,1.1-0.8,1.1-0.6-0.1c1-4.8,1.5-10,1.3-14.2c0,0,0,0,0,0v0c0,0,0,0,0,0c0-0.2,0-0.4,0-0.6c0,0,0,0,0,0v0
		c0-0.2,0-0.5-0.1-0.7c0-0.2,0-0.5-0.1-0.7c0-0.3-0.1-0.7-0.1-1c-0.1-0.5-0.2-1.6-0.3-2.4l-0.1-0.6v0l0-0.3v0l-0.1-0.5l0.2-0.2
		c0,0,0,0,0,0l0.3-0.3l0.1-0.1c1.7-1.4,2.9-3.7,3.6-6.3c0,0,0,0,0,0c0,0,0,0,0,0c0-0.2,0.1-0.4,0.1-0.6c0.2-0.7,0.3-1.4,0.4-2.1
		c0.4-3.7-0.2-7.3-2.2-9c-0.5-0.4-0.9-0.7-1.3-0.7h0c-0.1,0-0.2,0-0.3,0.1h0c-0.7,0.3-1.1,1.8-1.2,4.3c0,0,0,0.1,0,0.2v0
		c0,0.2,0,0.5,0,0.7c0,0,0,0,0,0c0,0,0,0,0,0v0c0,0,0,0.1,0,0.1c0,0.2,0,0.5-0.1,0.8c0,0.2,0,0.4,0,0.6c0,0.2,0,0.3,0,0.5
		c0,0.3-0.1,0.6-0.1,0.8c0,0.1,0,0.2,0,0.3c0,0.1,0,0.3,0,0.4c0,0,0,0,0,0v0c0,0.2,0,0.4-0.1,0.6v0c-0.1,0.8-0.1,1.8-0.2,2.4
		c0,0.4-0.1,0.7-0.1,0.9v0c0,0,0,0,0,0c-0.1,0.6-0.2,0.7-0.4,0.2v0c-0.1-0.3-0.3-0.8-0.5-1.5c-0.5-1.5-1.2-3.6-1.4-4.2
		c-0.1-0.2-0.4-0.9-0.6-1.6c-0.8-2.1-2.2-5.1-4-8.3l-0.5-0.9l0.4-0.6c0.8-1.3,1.8-3.5,2.1-4.4c0.2-0.5,0.3-1.1,0.4-1.4
		c0.2-0.6,0.3-1.2,0.4-1.8c0,0,0,0,0,0c0-0.2,0.1-0.3,0.1-0.5v0c0.4-3.8-0.5-8.8-2.4-12.2c-0.4-0.8-0.8-1.4-1.2-1.8c0,0,0,0,0,0
		c0,0-0.1-0.1-0.1-0.1c0,0-0.1-0.1-0.1-0.1c0,0-0.1-0.1-0.1-0.1c-0.3-0.2-0.5-0.4-0.7-0.3c-0.3,0-0.5,0.3-0.7,0.7
		c-0.4,1.2-0.6,3.7-0.6,7.8c0,1.9,0,3.1,0,4.2c0,0,0,0,0,0v0.2c0.1,1.6,0.3,2.9,0.6,5.6c0.1,0.5,0.1,0.9,0.1,1.2c0,0,0,0,0,0
		c0,0.3,0,0.5,0,0.6v0c0,0,0,0,0,0h0c0,0.1-0.1,0.1-0.1,0c0,0,0,0,0,0c0,0,0,0,0,0c0,0,0,0,0-0.1c0,0,0,0,0,0v0
		c-0.2-0.3-0.8-1.2-1.5-2.1c-1.7-2.5-3.9-5.4-5.7-7.5c-0.4-0.5-0.9-1.1-1.3-1.6c0,0,0,0,0,0l0,0c-0.2-0.3-0.5-0.6-0.7-0.8
		c0,0-0.1-0.1-0.1-0.1c-0.5-0.6-1.2-1.8-1.7-2.6c-0.5-0.9-1-1.7-1.1-1.9c0,0,0,0,0,0l0,0c0,0,0,0-0.1-0.1c0,0-0.1-0.1-0.1-0.2
		c0,0,0,0,0,0c0,0,0-0.1-0.1-0.1c0,0-0.1-0.1-0.1-0.1c0,0,0-0.1-0.1-0.1c0,0,0-0.1-0.1-0.1c-0.1-0.2-0.2-0.3-0.3-0.5
		c-0.4-0.6-1-1.3-1.6-1.9c-0.4-0.4-0.8-0.8-1.3-1.1c0,0-0.1-0.1-0.1-0.1h0c-0.1-0.1-0.2-0.2-0.4-0.3c0,0-0.1,0-0.1-0.1
		c-0.2-0.1-0.3-0.2-0.5-0.3c-0.2-0.1-0.3-0.2-0.5-0.3c-0.2-0.1-0.3-0.2-0.5-0.2c-0.4-0.2-0.8-0.4-1-0.5c-0.2-0.1-1.2-0.2-2.3-0.3
		l-2-0.1l0.1,0.5c0,0.2,0.1,0.5,0.3,0.9c0,0.1,0.1,0.3,0.2,0.4c0,0,0,0,0,0.1c0.1,0.1,0.1,0.2,0.2,0.4c0.1,0.3,0.3,0.7,0.5,1.1
		c0,0.1,0.1,0.2,0.1,0.3c0,0.1,0.1,0.1,0.1,0.2c0,0,0,0.1,0,0.1c0,0,0,0.1,0,0.1c0.2,0.3,0.3,0.6,0.5,0.9c0.1,0.1,0.1,0.3,0.2,0.4
		c0,0.1,0.1,0.1,0.1,0.2c0.1,0.1,0.2,0.2,0.2,0.3c0,0,0,0.1,0.1,0.1c0,0,0,0.1,0.1,0.1c0,0.1,0.1,0.1,0.1,0.2c0,0,0.1,0.1,0.1,0.1
		c0,0,0,0.1,0.1,0.1c0,0,0.1,0.1,0.1,0.1c0,0,0,0,0,0c0.1,0.1,0.2,0.2,0.3,0.3c0.1,0.2,0.3,0.3,0.5,0.5c0.2,0.2,0.3,0.3,0.5,0.5
		c0,0,0,0.1,0.1,0.1c0.1,0.1,0.1,0.1,0.2,0.2c0,0,0.1,0,0.1,0.1l0.1,0.1h0c0.1,0,0.1,0.1,0.2,0.2c0.7,0.6,1.6,1.2,2.6,1.8
		c0,0,0.1,0,0.1,0.1c0.2,0.1,0.3,0.2,0.5,0.3c0.2,0.1,0.4,0.2,0.6,0.3c0.4,0.2,0.9,0.4,1.2,0.6c0,0,0.1,0,0.1,0c0,0,0,0,0,0
		c0.2,0.1,0.3,0.2,0.4,0.2c0.1,0,0.2,0.1,0.5,0.2c0.2,0.1,0.5,0.2,0.7,0.4c0,0,0,0,0,0c0.1,0,0.2,0.1,0.3,0.1c0,0,0,0,0.1,0
		c0.7,0.4,1.5,0.9,1.7,1.2c0.2,0.3,0.7,0.9,1.3,1.6l0,0c0.2,0.2,0.3,0.4,0.5,0.6c0.9,1.2,1.9,2.4,2.2,2.9c0.3,0.4,0.5,0.7,0.6,0.8
		c0.1,0.1,0.7,1,1.5,2.1c0.7,1,1.4,2,1.5,2.1c0.4,0.5,2.1,3.4,3.1,5.1c0.3,0.6,0.6,1,0.7,1.3c0.2,0.4,0.2,0.6,0.1,0.6
		c-0.1,0-0.2,0-0.4-0.2c0,0,0,0-0.1,0c-0.1,0-0.2-0.1-0.2-0.2c-0.1-0.1-0.2-0.1-0.3-0.2c-0.1-0.1-0.2-0.2-0.4-0.3
		c-0.1-0.1-0.2-0.1-0.3-0.2c-0.1-0.1-0.1-0.1-0.2-0.1c-1.2-0.8-1.9-1.3-2.5-1.6c-0.5-0.3-1.4-0.8-1.8-1c-1.5-0.8-5.2-2.3-5.8-2.3
		c-0.2,0-0.4,0-0.5,0.1c0,0,0,0-0.1,0.1c-0.5,0.7,1,2.8,3.1,5c0,0,0.1,0.1,0.1,0.1l0.3,0.3h0c0,0,0.1,0.1,0.2,0.2
		c0.1,0.1,0.1,0.1,0.2,0.2c0,0,0,0,0,0c0,0,0.1,0.1,0.1,0.1c0.6,0.5,1.2,1.1,1.8,1.6c0.1,0,0.1,0.1,0.2,0.2c0,0,0.1,0.1,0.1,0.1
		c0,0,0.1,0.1,0.1,0.1c0.9,0.7,1.8,1.3,2.6,1.7c2.2,1.2,5,2,6.2,1.9c0.5,0,2,3.7,3.2,8c0.4,1.4,0.5,1.9,0.9,4.1
		c0.1,0.4,0.2,0.8,0.2,1.3v0c0,0.2,0,0.3,0.1,0.5v0c0,0,0,0,0,0c0.1,1,0.3,2.1,0.4,3.1v0c0,0.2,0,0.3,0.1,0.5v0
		c0.1,0.6,0.1,1.2,0.1,1.7c0,0.1,0,0.2,0,0.3c0,0,0,0,0,0c0,0.9,0,1.3-0.1,1.3l0,0h0c0,0,0,0-0.1,0v0c0,0,0-0.1-0.1-0.1
		c0,0-0.1-0.1-0.1-0.1c0,0,0-0.1-0.1-0.2c0,0,0-0.1,0-0.1c-0.1-0.2-0.2-0.4-0.2-0.6c-1.2-3-4-7.2-6.8-10c-1.5-1.5-2.4-1-1.8,1.2
		c0.1,0.3,0.3,1.1,0.4,1.8c1,4.1,3.1,8.2,5.5,10.8c0.1,0.1,0.2,0.2,0.3,0.3c0.7,0.7,1.3,1.2,2,1.7c0.1,0,0.1,0.1,0.2,0.2
		c0,0,0.1,0,0.1,0c0,0,0,0,0.1,0c0.1,0.1,0.2,0.2,0.3,0.2c0.2,0.1,0.2,0.3,0.2,0.4c0,0.1,0,0.4,0,0.7v0.1c-0.1,1.2-0.5,3.3-0.8,5v0
		c0,0,0,0,0,0c-0.1,0.3-0.1,0.5-0.2,0.8c0,0,0,0,0,0c0,0.1,0,0.2-0.1,0.3c-0.7,3.2-2.5,8.9-3.2,10.5c0,0,0,0,0,0
		c-0.1,0.2-0.2,0.3-0.2,0.4c0,0,0,0-0.1,0.1v0c0,0.1-0.1,0.2-0.1,0.4c0,0.1,0,0.2-0.1,0.2v0c0,0,0,0,0,0h0c0,0,0,0,0,0c0,0,0,0,0,0
		c0,0,0,0,0,0c-0.1,0-0.1-0.1-0.1-0.2c0,0,0,0,0,0v0c0,0,0,0,0-0.1c0-0.1,0-0.2,0-0.3c0-0.1,0-0.2,0-0.3c0.7-4.7-0.1-9.9-2.1-13.1
		c-1-1.6-1.6-1.6-2,0.1c-1.7,6.9-1.2,14,1.3,17.7c0.7,1,0.6,1.2-0.7,3.7c-2.5,4.8-5.2,9-8.7,13.8c-0.7,1-1.2,1.6-1.5,1.8
		c-0.1,0.1-0.2,0.2-0.2,0.1c0,0,0-0.2,0.1-0.4c0,0,0-0.1,0.1-0.2c0,0,0-0.1,0-0.1c0-0.1,0.1-0.2,0.1-0.3c0,0,0-0.1,0-0.1
		c1.9-4.9,2.4-10.5,0.9-10.1c-0.7,0.2-2.9,2.7-2.9,3.3c0,0-0.2,0.5-0.4,1c-0.7,1.5-0.8,1.8-1.2,3.2c-0.4,1.4-0.9,3.9-1.1,5.9v0
		c0,0.2-0.1,0.4-0.1,0.6c0,0.5-0.1,1-0.1,1.4v0c0,0,0,0.1,0,0.1v0.1c0,0.3,0,0.5,0.1,0.6c0,0.1-0.1,0.3-0.4,0.6c0,0,0,0,0,0
		c-0.1,0.1-0.2,0.2-0.4,0.4c-0.1,0.1-0.2,0.2-0.3,0.3c-0.1,0.1-0.2,0.2-0.4,0.3l-0.2,0.2l-0.3,0.3l0,0c-0.1,0.1-0.3,0.3-0.4,0.4l0,0
		c-1.1,1-2.4,2.1-3.6,3c-1.3,1-4,2.9-5.3,3.6h0c0,0,0,0,0,0c0,0,0,0,0,0c0,0,0,0,0,0c-0.1,0.1-0.2,0.1-0.3,0.1c0,0,0,0,0,0
		c0,0,0,0,0,0c-0.1,0.1-0.2,0.1-0.2,0.1c-0.3,0-0.3-0.2,0-0.4c0,0,0,0,0.1-0.1c0,0,0.1-0.1,0.2-0.2c0,0,0,0,0,0
		c0.8-0.9,2.4-3.9,3-5.6c1-3,1.2-4.6,0.5-4.8h0c0,0,0,0-0.1,0s0,0-0.1,0c0,0,0,0-0.1,0c0,0-0.1,0-0.1,0c-0.1,0-0.3,0.1-0.4,0.2
		c-0.1,0-0.1,0.1-0.2,0.1c0,0,0,0-0.1,0c-0.1,0-0.1,0.1-0.2,0.2c-0.5,0.4-1,1-1.7,1.7c-0.5,0.6-1,1.2-1.4,1.7
		c-0.1,0.2-0.3,0.4-0.4,0.6c-0.1,0.1-0.2,0.2-0.2,0.3c0,0-0.1,0.1-0.1,0.1c0,0,0,0,0,0.1c-0.1,0.2-0.3,0.4-0.4,0.7
		c-0.6,0.8-1,1.7-1.4,2.5c0,0,0,0,0,0.1c0,0,0,0,0,0c-0.2,0.5-0.5,1-0.6,1.5c0,0,0,0,0,0c0,0,0,0,0,0c-0.3,0.9-0.5,1.7-0.6,2.4
		c0,0.4-0.1,0.7-0.2,0.9h0c-0.1,0.2-0.3,0.4-0.8,0.6c-0.3,0.1-0.8,0.3-1.4,0.6c-0.1,0-0.1,0-0.2,0.1c-0.2,0.1-0.5,0.2-0.7,0.3
		c0,0,0,0,0,0c-1.2,0.4-2.2,0.8-4.8,1.6l-0.1,0l-0.9,0.3l-0.1,0h0.1l2.1-0.1c4.3-0.1,10.4-2.7,15.9-6.7l1.2-0.8c0,0,0,0,0,0l0,0
		l0.2-0.1l0.4,0.1h0l0,0l0.8,0.2c0.7,0.2,1.3,0.4,2,0.5c0,0,0.1,0,0.1,0c0.2,0,0.3,0.1,0.5,0.1c0.1,0,0.2,0,0.3,0c1,0.1,2,0.1,2.9,0
		h0l0.2,0l0.2,0c0.3,0,0.7-0.1,1-0.1h0c2.7-0.5,5.4-1.7,7.7-3.5c0.1-0.1,0.1-0.1,0.2-0.1c0,0,0.1-0.1,0.1-0.1c0,0,0,0,0.1-0.1
		c0,0,0,0,0.1,0c0,0,0,0,0,0c1.9-1.6,1.3-2.2-2.1-2.2c-1.2,0-2.2,0-3.2,0.2c-0.1,0-0.3,0-0.5,0.1c-0.9,0.1-1.7,0.3-2.6,0.5h0
		c-0.1,0-0.2,0.1-0.3,0.1h0c-0.7,0.2-1.3,0.4-2,0.6c-0.4,0.1-0.8,0.2-1,0.3c-0.1,0-0.2,0-0.2,0c-0.1,0-0.1,0-0.1,0
		c0,0,0.3-0.4,0.9-1c0,0,0,0,0,0c0.2-0.2,0.3-0.4,0.5-0.6c0.3-0.3,0.7-0.7,1-1.1c2-2,3.6-3.8,5.3-5.9c0,0,0.1-0.1,0.1-0.1
		c0.1-0.1,0.1-0.2,0.2-0.2c0.1-0.1,0.1-0.2,0.2-0.3c1.1-1.4,2.3-3,3.7-5l0.8-1.1l0.8,0.1c4.1,0.7,9.2-1,11.6-3.8
		c1.6-1.9,3.2-4.8,3-5.6c-0.2-0.9-2.5-1-4.4-0.3c-1.4,0.5-4.6,2.4-6.4,3.7c0,0,0,0,0,0c-0.1,0-0.1,0.1-0.2,0.1
		c-0.1,0.1-0.2,0.1-0.2,0.2c0,0-0.1,0.1-0.1,0.1c-0.4,0.3-0.6,0.4-0.8,0.5c-0.2,0.1-0.2,0,0-0.4v0l0,0c0-0.1,0.1-0.2,0.2-0.3
		c1.7-3,3-5.6,4.1-8.1c0.2-0.5,0.5-1.2,0.7-1.5c0.4-0.8,1.2-2.9,1.7-4.2c0.2-0.7,0.5-1.4,0.6-1.6c0.1-0.2,0.2-0.7,0.4-1.1
		c0.2-0.7,0.2-0.8,1.3-1c4.7-1.3,9.3-5.7,11.2-10.7C285.9,74.2,286.1,73.1,285.7,72.6z M249.7,17.2c-0.1-0.1-0.3-0.2-0.4-0.4
		c0,0-0.1-0.1-0.1-0.1c0,0,0,0,0-0.1c0,0,0,0,0-0.1c-0.1-0.2,0-0.3,0.3-0.1c0.1,0.1,0.2,0.2,0.3,0.3c0.1,0.2,0.1,0.3,0.1,0.4
		C249.8,17.3,249.8,17.3,249.7,17.2z M168.1,136.4C168,136.4,168,136.4,168.1,136.4C168,136.3,168,136.3,168.1,136.4
		c-0.1-0.1-0.1-0.1-0.2-0.1c0,0,0,0-0.1,0c0,0,0,0-0.1,0h0c-0.2-0.1-0.4-0.1-0.7-0.2c0,0,0,0,0,0h0c-0.1,0-0.2,0-0.3-0.1
		c-1-0.2-2.8-0.8-3.4-1.1c-0.1-0.1-0.4-0.2-0.6-0.2c0,0-0.1,0-0.2,0c0,0-0.1,0-0.1,0c-0.1,0-0.2-0.1-0.3-0.1c-0.1,0-0.1,0-0.2-0.1
		c-0.7-0.3-1.7-0.7-2.1-1c-0.2-0.1-0.4-0.4-0.5-0.6c-0.1-1.2-0.6-3.3-0.9-3.7c0,0-0.1-0.1-0.1-0.1c0,0-0.1-0.1-0.1-0.1
		c0-0.1-0.1-0.2-0.1-0.2c0,0,0-0.1,0-0.1c0,0,0-0.1,0-0.2c0,0,0,0,0,0c0,0,0,0,0-0.1c0,0,0,0,0-0.1c-0.1-0.1-0.1-0.3-0.2-0.4
		c0,0,0-0.1-0.1-0.2c0,0,0-0.1-0.1-0.1c0-0.1-0.1-0.1-0.1-0.2c0-0.1-0.1-0.1-0.1-0.2c-0.2-0.4-0.5-0.9-0.8-1.3
		c-0.1-0.2-0.2-0.3-0.3-0.5c-0.2-0.3-0.4-0.6-0.6-1c-0.1-0.1-0.2-0.2-0.2-0.4c-0.2-0.2-0.3-0.4-0.5-0.6c-0.3-0.4-0.6-0.7-0.8-1
		c-1.3-1.5-2.2-2.3-2.8-2.5c0,0,0,0,0,0h0c0,0-0.1,0-0.1,0c-0.1,0-0.2,0-0.2,0c0,0,0,0,0,0h0c-0.3,0.2-0.4,0.9-0.1,2
		c0.1,0.3,0.1,0.6,0.2,1c0.1,0.5,0.3,1,0.5,1.6c0.6,1.8,1.5,3.5,2.5,4.9c1.2,1.7,1.2,1.6,0.6,1.4c-0.8-0.3-2.2-1.2-3.7-2.3
		c0,0,0,0-0.1-0.1c-0.4-0.3-0.8-0.6-1.3-0.9c0,0-0.1,0-0.1-0.1c0,0,0,0,0,0c0,0,0,0,0,0c-1.6-1.2-3.4-2.7-4.9-4.1
		c0,0-0.1-0.1-0.1-0.1l-0.7-0.7c0,0,0,0,0,0l-0.9-0.9l-0.1-2.3c-0.2-4.4-1.8-9.4-3.4-12.2c-0.1-0.2-0.2-0.4-0.4-0.6
		c-0.9-1.4-1.9-2-2.6-1.4c-0.3,0.3-0.3,1.5-0.2,3c0,0.1,0,0.3,0.1,0.4c0,0,0,0,0,0v0c0,0.2,0.1,0.5,0.1,0.8c0,0,0,0,0,0
		c0,0.1,0,0.2,0.1,0.4c0.3,1.9,0.9,4,1.5,5.5c0,0.1,0.1,0.2,0.1,0.3l0,0c0.1,0.3,0.2,0.6,0.2,0.7c0,0.2,0,0.2-0.2,0
		c0,0-0.3-0.5-0.7-0.9c-2.9-3.6-6.8-9.7-9.7-15.1c-1.2-2.2-1.2-2.4-0.6-3.4c0.8-1.2,1.3-2.6,2-5c0.4-1.5,0.4-7.8,0.1-9.5
		c-0.1-0.5-0.3-1.6-0.5-2.2c0-0.1,0-0.2-0.1-0.2c0,0,0,0,0,0c-0.1-0.2-0.1-0.4-0.1-0.6c0,0,0,0,0,0c-0.6-2.2-1.3-1.9-2.6,0.7
		c-1.1,2.2-1.8,5-1.8,7.9c0,0.2,0,0.5,0,0.8c0,0,0,0,0,0.1c0,1,0.1,2.1,0.2,3.1v0c0,0.1,0,0.2,0,0.3c0,0.2,0.1,0.4,0.1,0.5
		c0,0.3,0,0.3-0.2,0.2v0c-0.3-0.4-0.9-2.1-1.8-4.7c-0.5-1.6-1-3.3-1.4-5c0,0,0,0,0,0c-0.1-0.3-0.2-0.6-0.2-0.9c0,0,0,0,0,0v0
		c-1.1-4.4-1.6-8.3-1-8.3c0.7,0,3.6-2.9,4.9-4.8c2.8-4.2,5-11.7,3.6-12.1c-0.6-0.2-3.1,2.5-5.1,5.3l0,0c0,0,0,0,0,0
		c-0.2,0.3-0.4,0.5-0.6,0.8c0,0,0,0,0,0c-0.3,0.4-0.5,0.8-0.8,1.2c-0.6,1-2,4-2,4.2c0,0.1-0.1,0.3-0.2,0.3c-0.2,0-0.2-1.2-0.1-2.7v0
		c0,0,0,0,0,0c0-0.2,0-0.5,0-0.7v0c0-0.3,0.1-0.6,0.1-0.9v-0.1c0-0.1,0-0.3,0-0.4c0.1-0.7,0.2-1.4,0.3-2.1c0,0,0,0,0,0v0
		c0-0.1,0-0.2,0.1-0.4c0,0,0,0,0,0c0.1-0.5,0.2-1.1,0.3-1.6c1.1-5.3,3.4-12.1,4-11.8c1,0.4,5-1,7.4-2.5c1.1-0.7,2.3-1.7,3.4-2.7l0,0
		c0.2-0.2,0.3-0.3,0.4-0.4c2.5-2.4,4.4-5,3.9-5.8c0,0,0,0,0,0c0,0,0,0,0,0c0,0,0,0-0.1,0c0,0,0,0,0,0h0c-0.9-0.2-5.4,1.5-8.2,3.3
		c-0.4,0.2-0.7,0.4-0.8,0.4c-0.1,0-1.9,1.3-3.1,2.1c-1.1,0.8,0.7-2.5,3.5-6.7c0.2-0.3,0.4-0.6,0.6-0.9v0c0.5-0.8,1-1.5,1.6-2.3
		c3.3-4.7,5.6-7.4,6.8-8c0.2-0.1,0.3-0.2,0.5-0.2v0c0.1,0,0.2-0.1,0.3-0.1c0,0,0,0,0,0c0.1,0,0.1,0,0.1-0.1v0
		c0.1-0.1,0.2-0.1,0.3-0.2c0.1-0.1,0.2-0.1,0.4-0.2c0.1,0,0.1,0,0.2,0c0,0,0,0,0.1,0c0,0,0,0,0,0c0.1,0,0.2-0.1,0.2-0.2
		c0-0.1,0.1-0.2,0.2-0.2c1.1,0,4.7-2.4,6.5-4.3c0.1-0.1,0.2-0.3,0.4-0.4c0.1-0.1,0.1-0.1,0.2-0.2c0.1-0.1,0.2-0.2,0.3-0.4
		c0.1-0.2,0.2-0.4,0.3-0.5c0-0.1,0.1-0.1,0.1-0.2c0,0,0.1-0.1,0.1-0.1c0.3-0.3,1.1-1.9,1.6-3.2c0.1-0.1,0.1-0.3,0.2-0.4
		c0-0.1,0.1-0.1,0.1-0.2c0.1-0.1,0.1-0.2,0.1-0.4v0c0-0.1,0.1-0.2,0.1-0.3c0-0.1,0-0.1,0.1-0.2c0-0.1,0-0.1,0.1-0.2
		c0-0.1,0-0.2,0-0.2c0,0,0,0,0-0.1v0c0-0.2-1.1-0.3-2.2-0.3c0,0,0,0-0.1,0h0c-0.5,0-1,0-1.4,0.1c-0.9,0.2-2,0.8-3,1.6
		c-0.1,0.1-0.2,0.1-0.3,0.2c-0.2,0.1-0.3,0.3-0.5,0.4c-1.2,1-2.2,2.2-2.9,3.3c-0.1,0.1-0.1,0.2-0.2,0.3c0,0.1-0.1,0.1-0.1,0.2
		c0,0,0,0.1,0,0.1c-0.1,0.2-0.2,0.4-0.3,0.5c0,0,0,0,0,0c0,0,0,0,0,0.1c0,0.1-0.1,0.1-0.1,0.2c0,0-0.1,0.1-0.1,0.2c0,0,0,0,0,0
		c0,0,0,0,0,0c-0.1,0.2-0.2,0.4-0.3,0.5c-0.4,0.8-1.3,2.4-1.7,2.8c-0.2,0.2-0.9,1.1-1.7,2c0,0.1-0.1,0.1-0.2,0.2
		c0,0-0.1,0.1-0.1,0.2c-0.1,0.1-0.1,0.1-0.2,0.2c0,0.1-0.1,0.1-0.2,0.2c-0.1,0.1-0.1,0.1-0.1,0.2c0,0-0.1,0.1-0.1,0.1
		c-0.4,0.5-0.6,0.8-0.7,0.8c-0.2,0.2-1.5,1.8-2.2,2.8c-0.4,0.5-0.8,1.1-0.9,1.2c-0.3,0.4-2.3,3.2-2.7,4c-0.2,0.4-0.4,0.6-0.5,0.7
		c0,0-0.1,0-0.1,0c0,0,0,0,0,0c-0.1-0.1-0.1-0.4,0-0.9c0,0,0,0,0,0c0,0,0-0.1,0-0.1c0-0.1,0-0.1,0-0.2c0,0,0,0,0,0
		c0-0.2,0.1-0.4,0.1-0.6c0.1-0.5,0.2-0.9,0.2-1.4v0c0.1-0.5,0.1-1,0.2-1.6v0c0.1-1.2,0.2-2.5,0.3-3.7c0-0.1,0-0.2,0-0.3
		c0.1-3.4,0-6.6-0.3-8.8c0-0.3-0.1-0.5-0.1-0.8c0,0,0,0,0,0c-0.2-1-0.5-1.6-0.9-1.7c-1-0.3-3.2,3.8-4.2,7.8
		c-0.2,0.7-0.3,1.4-0.4,2.2v0.1c0,0,0,0.1,0,0.1c0,0.1,0,0.1,0,0.2c0,0,0,0,0,0c-0.1,1.2-0.1,2.6,0,3.8c0,0.2,0,0.4,0.1,0.6
		c0.1,0.7,0.2,1.4,0.3,2c0.1,0.2,0.1,0.4,0.2,0.6c0.6,2.2,1.5,4.1,2.2,5.1c0.6,0.8,0.6,0.9-0.1,2.3c-0.9,1.7-1.8,3.4-2.3,4.5
		c-0.2,0.5-0.6,1.4-0.9,2c-1,2.2-3.1,8.2-3.1,8.9c0,0.8-0.2,0.2-0.4-0.8c0-0.1,0-0.3-0.1-0.4c0,0,0,0,0,0c0,0,0,0,0,0v0
		c0-0.2,0-0.4-0.1-0.5c0-0.5-0.1-1-0.1-1.4c0-0.2,0-0.4-0.1-0.7c0-0.1,0-0.2,0-0.3c-0.1-1.3-0.2-2.5-0.3-3.6c0-0.1,0-0.2,0-0.3
		c0-0.4-0.1-0.8-0.1-1.1c0-0.1,0-0.1,0-0.2c0-0.1,0-0.2,0-0.2c-0.2-3.5-1.2-4.6-2.8-3c-1.9,1.8-2.6,5.2-2.3,8.7c0,0,0,0,0,0
		c0,0.4,0.1,0.7,0.1,1.1v0c0.5,3,1.8,6,3.8,8l0.9,0.8l-0.2,1.3c-0.1,0.7-0.2,1.3-0.3,1.8c0,0,0,0,0,0c0,0.2-0.1,0.3-0.1,0.5
		c0,0,0,0,0,0c-0.1,0.6-0.1,1.2-0.2,1.8c0,0.1,0,0.2,0,0.3c0,0.3,0,0.5,0,0.8c0,0.1,0,0.3,0,0.4c0,0.9,0,1.9,0,3.2
		c0,0.2,0,0.3,0,0.5c0,0.3,0,0.6,0,0.8c0,0.8,0,1.4,0.1,2.1c0,0,0,0.1,0,0.1c0,0.1,0,0.2,0,0.3c0,0.1,0,0.2,0,0.3c0,0.2,0,0.3,0,0.4
		c0,0.1,0,0.3,0,0.4v0c0,0,0,0,0,0c0,0,0,0,0,0c0,0.2,0,0.4,0.1,0.6c0,0,0,0,0,0c0.1,0.7,0.2,1.4,0.3,2.2v0c0.1,0.3,0.1,0.6,0.2,1
		c0.1,0.4,0.2,0.9,0.3,1.4c0,0.1,0,0.2,0.1,0.3c0,0,0,0.1,0,0.1c0,0.2,0.1,0.3,0.1,0.5c0,0,0,0,0,0c0.1,0.9-0.2,0.6-1.3-1.1
		c-3.5-5.1-6-7.5-8.9-8.4c-1.5-0.4-1.7,0.3-0.9,2.7c1.8,5.5,6.2,10,11.3,11.6l1.2,0.4l0.6,1.8c1.5,4.5,4.6,11.3,6.6,14.7
		c0.9,1.5,0.8,1.8-0.3,0.9c-3.9-3.1-8.8-5.1-10.7-4.3c-2.1,0.9,2.5,7.2,6.5,9c2.5,1.1,6.2,1.5,7.8,0.9c0.6-0.2,0.4-0.5,2.9,3
		c0.3,0.5,0.6,0.9,1,1.3c0,0,0,0.1,0.1,0.1c0,0,0.1,0.1,0.1,0.1c0,0,0.1,0.1,0.1,0.2c0,0.1,0.1,0.1,0.1,0.2c0.2,0.3,0.5,0.6,0.7,0.9
		c0,0,0.1,0.1,0.1,0.2c0,0,0.1,0.1,0.1,0.1c0.1,0.2,0.3,0.4,0.4,0.6c0,0,0,0.1,0.1,0.1c1.9,2.4,3.7,4.4,6,6.6
		c0.5,0.5,0.9,0.9,1.2,1.3c0,0,0,0,0,0c0,0,0,0,0,0c0,0,0,0,0,0c0.4,0.4,0.6,0.7,0.5,0.6c0,0,0,0-0.1,0c0,0,0,0,0,0
		c-0.3-0.1-1-0.4-1.7-0.6c-1.9-0.7-4.4-1.1-6.5-1.2c0,0,0,0,0,0h0c-0.9-0.1-1.8-0.1-2.5,0h0c0,0,0,0,0,0c-1.5,0.1-2.4,0.5-2.2,1
		c0.1,0.4,2.5,2.5,2.8,2.5c0,0,0.4,0.2,0.7,0.4c2.1,1.4,5.6,2.2,8.7,2.2c0,0,0.1,0,0.1,0h0.1c0.5,0,0.9-0.1,1.2-0.1h0
		c0.5,0,0.9-0.1,1.4-0.2c0,0,0,0,0,0c0,0,0,0,0,0c0.3,0,0.6-0.1,0.8-0.2c0.4-0.1,0.8-0.2,1.1-0.4c0,0,0,0,0,0c0.2-0.1,0.4-0.1,1,0.3
		c0,0,0,0,0,0c0.3,0.2,0.7,0.5,1.3,0.9c4.2,2.8,8.3,4.8,12.8,6.1C164.8,136.5,168.3,136.7,168.1,136.4
		C168.1,136.4,168.1,136.4,168.1,136.4z M144.2,16.7c0,0,0.1-0.1,0.1-0.1c0.1-0.1,0.2-0.2,0.3-0.1c0,0,0,0,0,0c0,0,0,0,0,0
		c0,0.1,0,0.2-0.1,0.4c0,0,0,0.1-0.1,0.1c0,0-0.1,0.1-0.1,0.1c-0.2,0.1-0.3,0.2-0.3,0.1c-0.1-0.1,0-0.2,0.1-0.3
		C144.1,16.8,144.1,16.8,144.2,16.7z"/>
	<path id="path3" class="st2" d="M140.9,8.4c-0.1,0.3-0.2,10.1,0,10.7c0,0,0,0,0,0c0,0,0,0,0,0s0,0,0,0c0,0,0,0,0,0
		c0.1-0.4,0.1-2.7,0.1-5.3L140.9,8.4C140.9,8.4,140.9,8.4,140.9,8.4z M141,8.4L141,8.4c0.1,0,0.1,0,0.2,0H141z M252.7,8.3l-55.9,0
		c-40.4,0-53.4,0-55.6,0.1l55.5,0l55.8,0l0.1,5.1l0.1,5.1v-5.2L252.7,8.3z M197.2,144.1c-2.5,0-3.5,0-2.2,0c1.3,0,3.3,0,4.5,0
		C200.8,144.1,199.7,144.1,197.2,144.1z M203.7,143.8c-0.1,0-0.1,0-0.2,0c-0.1,0-0.2,0-0.3,0c-0.1,0-0.2,0-0.3,0
		c-0.6,0.1-0.6,0.1,0.2,0.1c0.5,0,1.1-0.1,1.4-0.1C205.1,143.7,204.4,143.7,203.7,143.8z M191.2,143.9c-0.5-0.1-1.2-0.1-1.6-0.1
		h-0.8l0.7,0.1c0.4,0.1,1.1,0.1,1.6,0.1l0.9,0L191.2,143.9z M207.7,143.2c-0.1,0-0.2,0-0.3,0c-0.1,0-0.1,0-0.2,0
		c-0.3,0-0.6,0.1-0.9,0.1c-0.4,0.1-0.7,0.1-0.8,0.2c0,0,0,0,0,0c-0.5,0.1-0.2,0.2,0.8,0.1C207.5,143.5,208.5,143.2,207.7,143.2z
		 M188.5,143.6c-0.6-0.2-2.3-0.4-1.9-0.2c0.2,0.1,0.8,0.2,1.3,0.2C188.6,143.7,188.8,143.7,188.5,143.6z M210.2,142.6
		c-0.4,0.1-1,0.3-1.4,0.3c-0.1,0-0.1,0-0.2,0c0,0,0,0,0,0c-0.3,0.1-0.3,0.1-0.1,0.2c0.3,0.1,2.9-0.5,3-0.7
		C211.6,142.3,210.9,142.4,210.2,142.6z M185.9,143.1C185.9,143.1,185.9,143.1,185.9,143.1c-0.1,0-0.1,0-0.2,0c-0.1,0-0.1,0-0.2,0
		c0,0,0,0-0.1,0c0,0-0.1,0-0.1,0l-0.1,0c-0.3,0-0.6-0.1-0.9-0.2c-0.1,0-0.3-0.1-0.4-0.1c-0.3-0.1-0.5-0.1-0.7-0.2c0,0,0,0,0,0
		c-0.5-0.1-0.7-0.1-0.3,0.1c0.6,0.2,2.9,0.7,3.1,0.6C186.1,143.1,186.1,143.1,185.9,143.1z M182.5,142.3c0,0-0.2-0.1-0.4-0.2
		c-0.1,0-0.2,0-0.2-0.1c-0.2,0-0.3-0.1-0.5-0.1c-0.1,0-0.2-0.1-0.3-0.1c-0.7-0.2-1.5-0.4-1.7-0.5c0,0-0.1,0-0.1,0c0,0,0,0-0.1,0
		c-0.5-0.2-1.2-0.4-1.6-0.5c0,0,0,0,0,0c-0.3-0.1-0.5-0.1-0.5,0c0,0.1,1.8,0.7,4,1.3C182,142.4,182.6,142.5,182.5,142.3z
		 M217.5,140.2c0,0-0.1,0-0.1,0c-0.2,0.1-0.5,0.2-0.9,0.4c-0.1,0.1-0.3,0.1-0.5,0.2c-0.2,0.1-0.4,0.1-0.6,0.2
		c-0.2,0.1-0.5,0.2-0.7,0.2c-0.2,0.1-0.5,0.2-0.7,0.2c-0.8,0.3-1.5,0.5-1.9,0.6c-0.3,0.1-0.4,0.1-0.4,0.2c0.1,0.1,2.9-0.7,4.2-1.3
		c0.4-0.2,0.9-0.4,1.1-0.4s0.5-0.2,0.5-0.3C217.7,140.2,217.6,140.2,217.5,140.2z M176.5,140.4c0,0-0.1,0-0.2-0.1c0,0-0.1,0-0.1,0
		c0,0,0,0-0.1,0c-0.3-0.1-0.4-0.1-0.2,0c0.1,0.1,0.4,0.2,0.7,0.3C177.1,140.7,176.9,140.6,176.5,140.4z M227.1,136.6
		c-0.9,0-1.3,0-0.8,0.1c0.5,0,1.2,0,1.7,0C228.4,136.6,228,136.6,227.1,136.6z M175.6,140c0,0-0.1-0.1-0.2-0.1c0,0-0.1,0-0.1,0
		c0,0-0.1,0-0.2-0.1c-0.8-0.3-2.8-1.3-4.2-2c-0.2-0.1-0.4-0.2-0.6-0.3c-0.1,0-0.2-0.1-0.3-0.1c-0.3-0.2-0.6-0.3-0.7-0.4
		c-0.6-0.4-0.8-0.4-2.3-0.4l-1.6,0l1.7,0.1c1.5,0.1,1.8,0.1,2.7,0.7C171.5,138.4,175.5,140.3,175.6,140
		C175.6,140.1,175.6,140.1,175.6,140z M224.2,137c-0.1,0.1-0.2,0.1-0.4,0.2c-0.2,0.1-0.6,0.3-0.9,0.5c-0.2,0.1-0.4,0.2-0.7,0.3
		c-0.4,0.2-0.8,0.4-1.2,0.6c-1,0.5-1.8,0.9-1.9,0.9c0,0-0.1,0-0.2,0c0,0-0.1,0-0.1,0c-0.1,0-0.1,0-0.2,0.1c-0.1,0.1-0.3,0.1-0.4,0.2
		c0,0-0.1,0-0.1,0.1c0,0,0,0,0,0c-0.2,0.1-0.3,0.2-0.2,0.2c0.2,0.2,4.1-1.6,6-2.7c0.5-0.3,1-0.6,1.2-0.6c0.1,0,0.3-0.1,0.3-0.2
		c0,0,0,0,0,0C225.3,136.3,225.4,136.3,224.2,137z M226.3,136c-0.1-0.1-0.2-0.1-0.3-0.1c-0.1,0-0.2,0.1-0.3,0.2c0,0,0,0-0.1,0.1
		c-0.2,0.3-0.1,0.3,0.5,0.1c0,0,0.1,0,0.1,0C226.4,136.2,226.4,136.1,226.3,136z M231.9,134.2c-0.1,0-0.4,0.1-0.7,0.2
		c-0.4,0.2-0.4,0.2-0.1,0.1c0,0,0,0,0,0c0.2-0.1,0.5-0.2,0.6-0.2c0,0,0,0,0,0C232,134.3,232,134.2,231.9,134.2z M162.8,134.6
		c-0.1-0.1-0.4-0.2-0.7-0.3c-0.3-0.1-0.3-0.1-0.2,0c0,0,0.1,0,0.1,0.1c0,0,0.1,0,0.2,0.1c0.1,0,0.2,0.1,0.3,0.1c0,0,0.1,0,0.1,0
		C162.7,134.6,162.8,134.6,162.8,134.6C163,134.7,163,134.7,162.8,134.6z M234.2,133.1L234.2,133.1c-0.1,0-0.3,0.1-0.5,0.3
		c-0.3,0.2-0.4,0.3-0.3,0.3l0,0c0.1,0,0.4-0.1,0.6-0.3C234.3,133.1,234.4,133,234.2,133.1z M239.3,130.6c-0.3,0.2-0.4,0.2-0.3-0.1
		c0.1-0.2,0.1-0.3,0-0.3c0,0,0,0,0,0c0,0-0.1,0.1-0.2,0.2c0,0,0,0-0.1,0.1c-0.2,0.2,0,0.4,0.3,0.3c0,0,0,0,0,0c0,0,0,0,0,0
		C239.3,130.7,239.4,130.7,239.3,130.6c0.1,0,0.1,0,0.1,0c0,0,0,0,0,0c0,0,0,0,0,0h0C239.7,130.4,239.6,130.4,239.3,130.6z
		 M253.2,129.6L253.2,129.6c-0.2,0-0.5,0-1,0.1l-0.2,0l-0.2,0h0l-0.4,0.1l0.7,0c0.4,0,0.8,0,1-0.1S253.3,129.6,253.2,129.6z
		 M249.1,129.8c0,0-0.1,0-0.3-0.1c-0.1,0-0.2,0-0.3,0c-0.1,0-0.2,0-0.3,0c0,0-0.1,0-0.2,0c0,0-0.1,0-0.1,0c-0.3,0-0.3,0-0.1,0.1
		C248.2,129.8,249.3,129.9,249.1,129.8z M166.9,135.5c-0.3-0.2-0.7-0.5-1.3-0.9c-1.4-0.9-2.5-1.7-4.7-3.6c0,0-0.1-0.1-0.1-0.1
		c-0.4-0.3-0.8-0.6-1.2-1c-0.4-0.3-0.6-0.5-0.6-0.4c0,0.2,3.4,3,5.7,4.6c1.1,0.8,2,1.5,2,1.6c0,0,0,0.1,0.1,0.1c0.1,0,0.2,0,0.3,0.1
		h0C167.5,136,167.6,136,166.9,135.5z M145.3,129.6L145.3,129.6c-0.3,0-0.7,0-1.2,0.1h-0.1c0,0-0.1,0-0.1,0c-0.1,0-0.3,0-0.4,0
		l-1.8,0.1l1.8,0c1,0,2,0,2.2-0.1C146,129.6,146.1,129.6,145.3,129.6z M147.5,129.2L147.5,129.2c-0.2,0-0.5,0.1-0.7,0.1
		c0,0-0.1,0-0.1,0c0,0,0,0,0,0c0,0,0,0,0,0c-0.2,0.1,0.2,0.1,0.7-0.1C147.6,129.3,147.7,129.3,147.5,129.2z M233.3,130.5
		c-0.3,0.2-0.6,0.5-1,0.8c-0.2,0.1-0.3,0.3-0.5,0.4c-1.4,1.1-3.2,2.4-4.3,3.2c-0.1,0-0.1,0.1-0.2,0.1c-0.1,0.1-0.2,0.2-0.4,0.2
		c-0.1,0-0.2,0.1-0.2,0.1c-0.2,0.1-0.3,0.2-0.4,0.3c0,0,0,0,0,0c-0.1,0.1-0.1,0.1-0.1,0.1c0.2,0.2,5.2-3.4,7.7-5.7
		c0.6-0.5,0.8-0.6,0.9-0.4c0.1,0.1,0.1,0.1,0.1,0.1c0,0,0,0,0,0c0,0,0,0,0,0c0-0.1,0-0.3,0.1-0.5
		C235.3,128.8,234.9,129.1,233.3,130.5z M245.2,128.9C245.2,128.9,245.2,128.9,245.2,128.9L245.2,128.9L245.2,128.9
		c-0.3-0.2-0.4-0.2-0.6,0l0,0c0,0,0,0,0,0c0,0,0,0-0.1,0.1c-0.2,0.3-0.2,0.3,0,0.1C244.7,129,244.9,128.9,245.2,128.9
		C245.4,129.1,245.4,129,245.2,128.9z M149.6,129.1C149.6,129.1,149.6,129.1,149.6,129.1c-0.1-0.1-0.1-0.1-0.2-0.2
		c-0.3-0.3-0.5-0.3-0.8-0.2c0,0,0,0,0,0c0,0-0.1,0-0.1,0c-0.2,0.1-0.2,0.2,0.1,0.1c0.2-0.1,0.5,0,0.8,0.1
		C149.6,129.2,149.7,129.2,149.6,129.1z M150.3,127.8c-0.6-0.5-0.8-0.6-0.6-0.4c0,0,0,0,0,0c0,0,0,0,0,0c0,0,0,0,0,0
		c0,0,0,0,0.1,0.1c0,0,0,0,0.1,0.1c0.4,0.3,0.9,0.7,1.2,0.9c0,0,0,0,0,0c0,0,0.1,0,0.1,0.1c0,0,0,0,0,0
		C151.7,128.8,151.5,128.6,150.3,127.8z M261.3,125.7C261.3,125.7,261.3,125.7,261.3,125.7C261.2,125.7,261.2,125.7,261.3,125.7
		c-0.1,0.1-0.1,0.1-0.1,0.1c0,0-0.1,0.1-0.1,0.1c-0.1,0.1-0.3,0.2-0.4,0.4l-0.7,0.6l0.7-0.5C261.2,125.9,261.5,125.7,261.3,125.7z
		 M144.7,125c-0.3-0.4-0.5-0.5-0.4-0.3c0,0,0,0,0,0c0,0,0,0,0,0c0,0,0,0,0,0c0,0.1,0.1,0.1,0.1,0.3c0.1,0.1,0.2,0.3,0.3,0.3
		c0,0,0,0,0,0c0,0,0.1,0.1,0.2,0.1C145,125.4,144.9,125.2,144.7,125z M253,124.1c-0.1,0-0.4,0.1-0.6,0.1c-0.2,0.1-0.2,0.1-0.1,0.1
		c0,0,0.1,0,0.1,0h0c0.1,0,0.2,0,0.3-0.1h0c0,0,0.1,0,0.1,0C253.1,124.1,253.2,124.1,253,124.1z M255,123.7c-0.3,0.1-0.1,0.1,0.4,0
		c0.2,0,0.3,0,0.5-0.1c0.2,0,0.4-0.1,0.4-0.1C256.4,123.5,255.4,123.6,255,123.7z M258.9,123.4c-0.7,0-1,0-0.6,0.1c0.4,0,1,0,1.3,0
		C260,123.5,259.6,123.4,258.9,123.4z M135.1,123.4c-1.3,0-1.9,0-1.3,0c0,0,0,0,0,0h0c0,0,0,0,0,0c0.7,0,1.8,0,2.5,0h0c0,0,0,0,0,0
		C137,123.5,136.4,123.4,135.1,123.4z M249.3,123l-0.9,0.9l0,0l-0.2,0.2l0.7-0.6l0,0l0.3-0.3L249.3,123c0.2-0.1,0.3-0.2,0.4-0.3
		c0.1-0.1,0.2-0.2,0.3-0.3c0.2-0.2,0.4-0.4,0.4-0.4c0,0,0,0,0,0C250.5,121.8,250.3,122,249.3,123z M151.2,122.2
		c-0.1-0.2-0.1-0.3-0.1-0.3c0,0,0,0.1,0,0.2c0,0.2,0.1,0.5,0.1,0.7c0.1,0.2,0.1,0.2,0.1,0.2C151.3,122.9,151.3,122.6,151.2,122.2z
		 M144,122.5l-0.8-0.7L144,122.5C144,122.6,144,122.6,144,122.5c0.4,0.5,0.7,0.8,0.8,0.8c0,0,0,0,0,0c0,0,0,0,0,0
		C144.8,123.3,144.6,123.1,144,122.5z M251.2,123c-0.3,0.3-0.5,0.5-0.7,0.7c-0.2,0.2-0.4,0.4-0.5,0.6c0,0,0,0,0,0
		c-0.5,0.5-0.8,0.9-0.8,1c0,0,0,0.1,0,0.1c0.2,0,0.2,0,0.2-0.1v0c-0.1-0.1,0.9-1.1,2.1-2.3c1.2-1.2,2.1-2.2,2.1-2.2
		C253.6,120.7,252.5,121.8,251.2,123z M250.8,120.8C250.8,120.8,250.8,120.7,250.8,120.8c0-0.1,0-0.1,0-0.1c0,0,0-0.1,0-0.1
		c0,0,0,0,0,0c0,0,0-0.1,0-0.1c0-0.2-0.1,0-0.1,0.3s0,0.5,0.1,0.3C250.8,120.9,250.8,120.9,250.8,120.8 M143.1,120.2
		c0-0.2-0.1,0-0.1,0.5c0,0.5,0,0.6,0.1,0.4C143.2,120.7,143.2,120.4,143.1,120.2z M251,118.6C251,118.5,251,118.5,251,118.6
		c0-0.2,0-0.3,0-0.4c0-0.3-0.1,0-0.1,0.6c0,0.2,0,0.3,0,0.4c0,0,0,0.1,0,0.1c0,0,0,0,0,0c0,0.2,0,0.3,0.1,0.1
		C251,119.1,251,118.8,251,118.6 M244.7,117c0.4-0.7,0.8-1.1,0.8-1.1c0.1,0.1-1,1.8-1.9,3.1c-0.9,1.3-0.7,0.8,0.3-0.9 M257.4,116.1
		c-0.1,0.1-0.1,0.2-0.2,0.3c-0.1,0.1-0.1,0.2-0.2,0.2c0,0.1-0.1,0.1-0.1,0.2c-0.1,0.2-0.2,0.3-0.1,0.3c0,0,0.3-0.3,0.6-0.7
		c0.3-0.4,0.5-0.7,0.4-0.7C257.7,115.7,257.6,115.9,257.4,116.1 M138.3,115.6L138.3,115.6c-0.1-0.1-0.1,0-0.1,0.3
		c0,0.2,0,0.4,0.1,0.4c0,0,0,0,0,0c0,0,0,0,0.1,0c0,0,0.1,0,0.1,0l0,0C138.5,116.2,138.5,116,138.3,115.6
		C138.3,115.7,138.3,115.7,138.3,115.6L138.3,115.6L138.3,115.6L138.3,115.6 M136.3,115.8c-0.1-0.1-0.2-0.2-0.3-0.2
		c-0.1,0,0.2,0.3,0.4,0.7c0.3,0.4,0.6,0.7,0.6,0.7c0,0,0-0.1-0.1-0.2c0,0,0-0.1-0.1-0.1c-0.1-0.1-0.2-0.3-0.3-0.4
		c0,0-0.1-0.1-0.1-0.1c0,0-0.1-0.1-0.1-0.1C136.4,115.9,136.4,115.8,136.3,115.8 M255.5,115.7c0,0.1,0,0.1,0,0.1c0,0.1,0,0.1,0,0.2
		c0,0.2-0.1,0.3-0.1,0.4c0,0.2,0,0.2,0.1,0.1c0,0,0.1-0.1,0.1-0.2c0.1-0.1,0.1-0.3,0.1-0.5c0-0.3,0-0.5,0-0.5c0,0-0.1,0.1-0.1,0.3
		C255.6,115.6,255.6,115.6,255.5,115.7 M135.2,114.4c-0.1-0.1-0.1-0.1-0.2-0.1c0,0,0.1,0.2,0.3,0.5c0.2,0.3,0.4,0.5,0.4,0.5
		c0,0,0-0.1-0.2-0.3c0-0.1-0.1-0.1-0.1-0.2c0-0.1-0.1-0.1-0.1-0.2C135.4,114.5,135.3,114.5,135.2,114.4
		C135.3,114.4,135.2,114.4,135.2,114.4 M246.5,113.7c0,0.1-0.1,0.2-0.1,0.3 M246.6,113.5c0-0.1,0.1-0.1,0.1-0.1
		c0.1,0.1-0.8,1.9-1.1,2.2c-0.1,0.1-0.1,0,0-0.2 M264.9,110.4c-0.6,0-0.9,0-0.6,0.1c0.3,0,0.8,0,1.2,0
		C265.8,110.5,265.6,110.4,264.9,110.4z M136.6,109.5C136.6,109.5,136.6,109.5,136.6,109.5c0,0-0.1,0.1-0.1,0.3c0,0.3,0,0.5,0.1,0.3
		c0-0.1,0-0.2,0-0.3c0,0,0,0,0-0.1c0,0,0,0,0,0C136.6,109.7,136.6,109.6,136.6,109.5C136.6,109.6,136.6,109.5,136.6,109.5
		C136.6,109.5,136.6,109.5,136.6,109.5 M136.4,108.2L136.4,108.2 M136.4,108.2C136.4,108.2,136.4,108.2,136.4,108.2
		C136.4,108.2,136.4,108.2,136.4,108.2c0,0.1,0,0.2,0,0.4c0,0.4,0,0.5,0.1,0.3c0-0.1,0-0.1,0-0.2c0,0,0,0,0,0s0,0,0,0
		C136.5,108.5,136.5,108.4,136.4,108.2C136.4,108.2,136.4,108.2,136.4,108.2 M121.4,107.8c-0.4-0.3-0.5-0.3-0.4-0.2
		c0.2,0.2,0.5,0.5,0.8,0.6C122.5,108.6,122.3,108.5,121.4,107.8z M139.1,106.6L139.1,106.6C139.2,106.6,139.2,106.6,139.1,106.6
		C139.2,106.7,139.2,106.7,139.1,106.6c0.4,0.3,0.8,0.9,0.6,0.9c0,0-0.1-0.1-0.2-0.2c0,0,0,0,0-0.1c-0.1-0.1-0.1-0.2-0.2-0.2
		C139.1,106.7,139.1,106.6,139.1,106.6 M118.8,105.3c-0.4-0.6-0.6-0.7-0.3-0.2c0.1,0.2,0.3,0.4,0.5,0.5
		C119.1,105.7,119.1,105.6,118.8,105.3z M265.1,105.1c0-0.1,0.1-0.1,0.1-0.2c0-0.2,0.1-0.2,0.1-0.1c0,0.1,0.2,0,0.6-0.2
		c0,0,0.1,0,0.1-0.1c0.1-0.1,0.2-0.2,0.4-0.3c0,0,0,0,0.1,0c0,0,0,0,0,0c0.1-0.1,0.3-0.2,0.4-0.3c0.4-0.3-0.1-0.1-0.7,0.4
		c-0.4,0.3-0.8,0.5-0.9,0.4c-0.1,0-0.2,0-0.2,0.1l0,0v0c0,0-0.1,0.1-0.1,0.1c-0.1,0.2-0.1,0.3,0,0.3
		C265,105.2,265.1,105.2,265.1,105.1 M249.5,107c0.4-1.1,0.7-2.2,1-3c0.1-0.3,0.1-0.4,0.2-0.2c0.1,0.2-0.7,2.7-1.1,3.7
		c-0.1,0.2-0.4,0.9-0.7,1.7c-0.7,1.8-1.8,4.1-1.9,4c0,0,0.1-0.3,0.2-0.7 M149.1,117.3c0.1,0.1,0.1,0.2,0.1,0.2
		c0,0.1,0.4,0.6,0.8,1.3s0.8,1.3,0.8,1.4c0,0.7-4.7-7.7-5.7-10.1c-0.1-0.2-0.2-0.6-0.4-0.9c-0.4-0.9-1.9-5.7-1.9-6
		c0-0.2,0.1-0.1,0.3,0.4 M142.5,101.3c-0.1-0.2-0.1-0.1,0,0.4c0,0.4,0.2,0.9,0.2,1C142.9,103,142.7,101.8,142.5,101.3z M250.9,102.2
		c0-0.1,0.1-0.2,0.1-0.3c0.1-0.2,0.2-0.7,0.3-1.1c0,0,0-0.1,0-0.1 M142.2,99.7c-0.1-0.4-0.1-0.4-0.1,0.1c0,0.3,0.1,0.7,0.1,0.8
		C142.4,101.1,142.4,100.3,142.2,99.7z M141.8,97.8c0.1,0.7,0.1,1.5,0,1.2c-0.1-0.2-0.2-0.8-0.2-1.4c-0.1-0.7,0-0.9,0-0.6
		c0,0.1,0.1,0.3,0.1,0.4 M251.8,98.1c0,0,0-0.1,0-0.1c0.1-0.2,0.2-0.8,0.2-1.3 M252.2,95.7c0.1-0.2,0.1-0.3,0.1-0.1
		c0.1,0.5-0.4,3.6-0.6,4.2c-0.1,0.2-0.1-0.1-0.1-0.6 M269.2,92.8C269.2,92.8,269.2,92.8,269.2,92.8c0,0.1,0.1,0.2,0.1,0.2
		c0,0,0,0,0,0c0,0,0,0,0,0c0,0,0,0,0,0h0c0,0,0,0,0,0v0c0-0.1,0-0.2,0-0.4c0-0.2-0.1-0.3-0.1-0.4c0,0,0,0,0,0
		c-0.1-0.2-0.1,0-0.1,0.4C269.2,92.6,269.2,92.7,269.2,92.8C269.2,92.7,269.2,92.8,269.2,92.8C269.2,92.8,269.2,92.8,269.2,92.8
		C269.2,92.8,269.2,92.8,269.2,92.8 M124.5,92.8L124.5,92.8C124.5,92.9,124.5,92.9,124.5,92.8C124.5,92.9,124.5,92.9,124.5,92.8
		c0.1,0,0.1,0,0.2-0.2c0,0,0,0,0,0s0,0,0,0c0-0.1,0-0.2,0-0.3c0-0.3,0-0.6-0.1-0.6c0,0,0,0.1,0,0.1v0c0,0.1-0.1,0.2-0.1,0.4
		C124.4,92.5,124.4,92.7,124.5,92.8C124.5,92.8,124.5,92.8,124.5,92.8 M269.8,91.9C269.9,91.9,269.9,91.9,269.8,91.9
		c0.1-0.2,0.1-0.4,0.1-0.5c0,0-0.1,0.2-0.2,0.4c-0.1,0.2-0.1,0.4-0.1,0.5v0h0c0,0,0.1-0.1,0.1-0.2C269.8,92.1,269.8,92,269.8,91.9
		C269.8,92,269.8,91.9,269.8,91.9 M264.3,89.6c0-0.2-0.1,0-0.1,0.3s0,0.5,0.1,0.3C264.3,90,264.3,89.7,264.3,89.6z M124.3,87.9
		c0-0.2,0-0.5,0-0.7c0-0.4-0.1,0-0.1,0.9c0,0.9,0,1.3,0.1,0.8c0-0.1,0-0.1,0-0.2c0,0,0-0.1,0-0.1c0,0,0-0.1,0-0.1c0-0.1,0-0.3,0-0.4
		C124.3,88,124.3,88,124.3,87.9 M269.6,87.2c0-0.5-0.1,0-0.1,1c0,1,0,1.4,0.1,0.9C269.7,88.5,269.7,87.6,269.6,87.2z M264.1,86.6
		c0-0.3-0.1,0-0.1,0.7s0,1,0.1,0.6C264.2,87.5,264.2,86.9,264.1,86.6z M129.8,87l0-2.2L129.8,87c-0.1,1.2-0.2,2.5-0.2,2.8l-0.1,0.7
		l0.2-0.7C129.8,89.4,129.8,88.2,129.8,87z M121,82.2L121,82.2C121,82.2,121,82.2,121,82.2C121,82.2,121,82.3,121,82.2
		c0,0.3,0.1,0.6,0.1,0.8c0,0.1,0.1,0.1,0.1,0.1c0,0,0,0,0,0c0.1,0.1,0-0.3-0.1-0.8C121.1,82.1,121,82,121,82.2 M119.5,81.5
		c0,0,0-0.1,0-0.1c-0.1-0.4-0.2-0.4-0.2,0c0,0.2,0.1,0.4,0.2,0.6c0.1,0.1,0.1,0.1,0.1,0.1c0,0,0,0,0,0c0,0,0-0.1-0.1-0.3
		c0,0,0,0,0,0C119.5,81.5,119.5,81.5,119.5,81.5 M273.3,80.1C273.3,80.1,273.3,80.1,273.3,80.1c-0.1-0.1-0.1,0.1-0.2,0.3
		c-0.1,0.2-0.1,0.5,0,0.5c0,0,0,0,0.1,0c0,0,0,0,0,0c0-0.1,0.1-0.2,0.1-0.3C273.3,80.4,273.3,80.3,273.3,80.1
		C273.3,80.2,273.3,80.2,273.3,80.1L273.3,80.1 M128.7,79.4c0,0.1,0.1,0.4,0.1,0.6c0,0,0,0,0,0s0,0,0,0c0.1,0.2,0.1,0.2,0.1,0.1
		c0-0.1-0.1-0.4-0.1-0.6C128.7,79.3,128.7,79.2,128.7,79.4C128.7,79.4,128.7,79.4,128.7,79.4 M274.9,78.9c0-0.2-0.1,0-0.1,0.3
		s0,0.5,0.1,0.3C275,79.3,275,79.1,274.9,78.9z M118.9,78.7L118.9,78.7C118.9,78.6,118.9,78.6,118.9,78.7c-0.1,0.2,0,0.6,0,0.8
		c0.1,0.3,0.1,0.3,0.1,0.1c0,0,0,0,0,0c0,0,0,0,0,0c0-0.2-0.1-0.5-0.1-0.8C119,78.9,119,78.8,118.9,78.7
		C119,78.8,119,78.8,118.9,78.7 M118.6,75.9L118.6,75.9c0-0.1,0-0.3,0-0.4c0-0.1,0-0.3,0-0.4c0-0.1,0-0.2,0-0.3c0-0.1,0-0.2,0-0.3
		c0,0,0-0.1,0-0.1c0-0.6-0.1-1.3-0.1-2.1c0-0.3,0-0.6,0-0.9c0-0.1,0-0.3,0-0.5c0-1.3,0-2.3,0-3.2c0-0.2,0-0.3,0-0.4
		c0-0.3,0-0.6,0-0.8c0-0.1,0-0.2,0-0.3c0-0.6,0.1-1.2,0.2-1.8 M118.6,75.9C118.6,75.9,118.6,75.9,118.6,75.9 M118.6,75.9
		c0,0,0,0.2,0,0.4c0,0.4,0,0.6,0.1,0.4c0-0.1,0-0.1,0-0.2c0,0,0,0,0,0C118.7,76.3,118.6,76.1,118.6,75.9
		C118.6,76,118.6,75.9,118.6,75.9C118.6,75.9,118.6,75.9,118.6,75.9 M119.9,75.3c0-0.2-0.1,0-0.1,0.3s0,0.5,0.1,0.3
		C120,75.7,120,75.4,119.9,75.3z M274.1,75L274.1,75L274.1,75l0-0.5c0-0.3-0.1-0.4-0.2-0.6c-0.1-0.1-0.2-0.2-0.3-0.2c0,0,0,0-0.1,0
		c0,0,0,0-0.1-0.1l-0.6-0.3l0.4,0.3c0.2,0.2,0.5,0.3,0.5,0.4c0.1,0,0.1,0.2,0.2,0.5L274.1,75 M274.1,75.1L274.1,75.1 M275.6,73.1
		c0-0.2-0.1,0-0.1,0.4c0,0.4,0,0.5,0.1,0.3C275.7,73.5,275.7,73.2,275.6,73.1z M107.9,72.9c0-0.2-0.1,0-0.1,0.3s0,0.5,0.1,0.3
		C108,73.3,108,73.1,107.9,72.9z M285.3,72.4c0.2,0,0.3,0.1,0.4,0.2c0,0,0,0,0.1,0.1c0,0,0,0,0,0c0,0,0,0,0,0.1
		c0.2,0.2,0.2,0.5,0.1,0.9c-0.1,0.4-0.1,0.4,0.1,0.1c0.4-0.8-0.1-1.6-0.9-1.6C284.8,72.2,284.9,72.3,285.3,72.4
		C285.3,72.4,285.3,72.4,285.3,72.4 M271.2,71.9c0.4,0.4,0.7,0.8,0.7,0.8c0,0-0.4-0.4-0.9-0.8c-0.5-0.5-0.8-0.8-0.7-0.8
		c0,0,0.3,0.2,0.6,0.5C271,71.7,271.1,71.8,271.2,71.9 M123.8,70.7c0,0-0.5,0.5-1.1,1.1l-1.1,1.1l1.1-1.1
		C123.8,70.9,123.9,70.7,123.8,70.7z M273.9,68.6c0,0,0,0.1,0.1,0.2c0,0,0,0.1,0.1,0.1c0,0,0.1,0.1,0.1,0.1v0c0,0,0,0,0.1,0.1h0l0,0
		c0.2,0.2,0.2,0.1,0.2-0.5c0-0.4,0-0.7-0.1-0.8c0,0,0,0,0,0l0,0c0,0-0.1,0.2-0.1,0.4c0,0.2-0.1,0.4-0.2,0.3
		C273.9,68.4,273.8,68.4,273.9,68.6C273.8,68.5,273.8,68.5,273.9,68.6C273.8,68.5,273.9,68.6,273.9,68.6 M118.3,68.8
		c0-0.8,0-0.2,0,1.5c0,1.6,0,2.3,0,1.5C118.3,70.9,118.3,69.6,118.3,68.8z M275.6,66.9L275.6,66.9c0-0.2,0-0.5,0-0.7
		c0-0.2,0-0.5-0.1-0.7c0-0.3-0.1-0.7-0.1-1c-0.1-0.5-0.2-1.6-0.4-2.4l-0.1-0.5v0 M275.6,66.9c0,0,0,0.2,0,0.4c0,0.4,0,0.5,0.1,0.3
		c0,0,0,0,0,0s0,0,0,0s0,0,0,0C275.7,67.3,275.7,67.1,275.6,66.9C275.6,66.9,275.6,66.9,275.6,66.9
		C275.6,66.9,275.6,66.9,275.6,66.9 M119.8,65.4c0-0.2-0.1,0-0.1,0.4c0,0.2,0,0.3,0,0.3c0,0,0,0,0,0v0c0,0.1,0,0.1,0.1-0.1
		C119.8,65.9,119.8,65.6,119.8,65.4L119.8,65.4C119.8,65.4,119.8,65.4,119.8,65.4L119.8,65.4 M274,65.2L274,65.2L274,65.2
		c0,0.1,0,0.1,0,0.2c0,0.3,0,0.4,0.1,0.3v0c0,0,0,0,0,0C274.2,65.5,274.2,65.2,274,65.2C274.1,65,274.1,65,274,65.2 M119.9,64
		c0,0-0.1,0.2-0.1,0.4v0c0,0,0,0,0,0.1v0c0,0.3,0,0.4,0.1,0.2C120,64.5,120,64.2,119.9,64C119.9,64.1,119.9,64.1,119.9,64
		C119.9,64,119.9,64,119.9,64 M118.6,64.3C118.6,64.3,118.6,64.3,118.6,64.3C118.6,64.3,118.6,64.3,118.6,64.3
		C118.6,64.3,118.6,64.3,118.6,64.3C118.6,64.4,118.6,64.3,118.6,64.3c0.1-0.2,0.1-0.3,0.1-0.5c0,0,0,0,0,0c0-0.1,0-0.2,0-0.2
		c-0.1-0.2-0.1,0-0.1,0.4C118.5,64.1,118.5,64.2,118.6,64.3 M123.4,62.3c0.3-0.5,0.2-0.6-0.2,0c-0.4,0.6-0.6,0.9-0.5,0.9
		c0,0,0,0,0.1,0c0,0,0,0,0,0c0.1-0.1,0.3-0.3,0.4-0.6C123.3,62.5,123.3,62.4,123.4,62.3C123.4,62.3,123.4,62.3,123.4,62.3
		L123.4,62.3 M273.6,61.5c0,0,0,0.2,0,0.3c0,0.3,0,0.5,0.1,0.3c0,0,0-0.1,0-0.1c0,0,0,0,0,0v0C273.7,61.9,273.6,61.7,273.6,61.5
		C273.6,61.5,273.6,61.5,273.6,61.5L273.6,61.5 M120.3,61.5c0,0-0.1,0.1-0.1,0.3c0,0,0,0,0,0c0,0,0,0,0,0c0,0,0,0,0,0
		c0,0.3,0,0.4,0.1,0.2C120.3,62,120.3,61.7,120.3,61.5C120.3,61.6,120.3,61.6,120.3,61.5L120.3,61.5
		C120.3,61.6,120.3,61.5,120.3,61.5C120.3,61.5,120.3,61.5,120.3,61.5 M274.9,61.2L274.9,61.2L274.9,61.2l0,0.5l0-0.1v0L274.9,61.2
		c0.1-0.3,0.2-0.6,0.3-0.7c0.1-0.1,0.1-0.2,0.1-0.2c0,0-0.1,0-0.3,0.2c0,0,0,0-0.1,0.1c0,0,0,0,0,0c0,0,0,0,0,0
		C274.9,60.7,274.8,60.9,274.9,61.2L274.9,61.2 M126.2,58.7l-0.6,0.6L126.2,58.7c0.4-0.3,0.7-0.5,0.7-0.6
		C126.8,58,126.7,58.1,126.2,58.7z M117.2,58.6c-0.4-0.6-0.6-0.7-0.3-0.2c0.1,0.2,0.3,0.4,0.5,0.5C117.4,59,117.4,58.9,117.2,58.6z
		 M128.1,56.9c-0.1,0-0.4,0.2-0.7,0.5l-0.5,0.5l0.6-0.5C127.8,57.2,128.1,56.9,128.1,56.9C128.2,56.9,128.1,56.9,128.1,56.9z
		 M273.4,54.5c0,0,0,0.1,0.1,0.2c0.2,0.4,0.4,0.1,0.3-0.4c0,0,0,0,0,0v0c0,0,0-0.1,0-0.1c0-0.2-0.1-0.2-0.1,0.1
		C273.7,54.4,273.6,54.5,273.4,54.5C273.5,54.4,273.4,54.4,273.4,54.5L273.4,54.5L273.4,54.5 M279.2,53.2c0,0.1-0.1,0.2-0.1,0.3
		c0,0.1-0.1,0.2-0.1,0.3c0,0,0,0,0,0c0,0,0,0,0,0c0,0.1,0,0.1,0,0.2c0,0,0.1-0.1,0.2-0.4C279.3,53.4,279.3,53.1,279.2,53.2
		C279.3,53.1,279.2,53.1,279.2,53.2C279.2,53.2,279.2,53.2,279.2,53.2 M120,53.4C120,53.4,120,53.4,120,53.4
		C120,53.4,120,53.4,120,53.4C120,53.4,120,53.5,120,53.4c0,0.1,0,0.1,0,0.2c0,0.3,0,0.4,0.1,0.3c0,0,0,0,0,0v0c0-0.2,0-0.4,0-0.6
		C120.1,53.1,120,53.2,120,53.4C120,53.4,120,53.4,120,53.4 M273.9,51.6c0-0.2-0.1,0-0.1,0.4c0,0.4,0,0.5,0.1,0.3
		C274,52,274,51.7,273.9,51.6z M279.6,51C279.6,51,279.6,51,279.6,51c0.1,0.2,0.1,0.5,0,0.6c0,0.2-0.1,0-0.1-0.3c0-0.1,0-0.1,0-0.2
		C279.5,51.1,279.5,51.1,279.6,51C279.6,51,279.6,51,279.6,51 M114.3,50.7c-0.1-0.2-0.1-0.1-0.1,0.3c0,0.3,0.1,0.6,0.2,0.8
		c0,0.1,0.1,0.1,0.1,0c0,0,0,0,0,0c0-0.1,0-0.2,0-0.4C114.3,51.1,114.3,50.9,114.3,50.7C114.3,50.7,114.3,50.7,114.3,50.7
		 M274.1,50.3C274.1,50.3,274.1,50.3,274.1,50.3c-0.1-0.2-0.1-0.1-0.1,0.3c0,0.2,0,0.3,0,0.3v0c0,0,0,0,0,0c0,0,0,0,0-0.1
		C274.2,50.7,274.2,50.5,274.1,50.3L274.1,50.3C274.1,50.3,274.1,50.3,274.1,50.3 M119.8,49.9c-0.1-0.6-0.1-0.4-0.1,0.6
		c0,0.1,0,0.2,0,0.3c0,0.3,0,0.5,0.1,0.7c0,0.2,0.1,0.4,0.1,0.4C120,52,120,50.6,119.8,49.9z M114.1,48.6c0-0.2-0.1,0-0.1,0.3
		s0,0.5,0.1,0.3C114.2,49,114.2,48.7,114.1,48.6z M274.5,46c0,0.2,0,0.4,0,0.6c0,0,0,0.1,0,0.1c0-0.1,0-0.4,0-0.9
		c0-0.8,0-1.1,0.1-0.7C274.5,45.3,274.5,45.7,274.5,46C274.5,46,274.5,46,274.5,46 M274.4,46.7C274.4,46.7,274.4,46.7,274.4,46.7
		C274.4,46.7,274.4,46.7,274.4,46.7 M274.1,50.3L274.1,50.3C274.1,50.3,274.1,50.3,274.1,50.3c0-0.2,0-0.3,0-0.4c0-0.1,0-0.2,0-0.3
		c0-0.2,0-0.5,0.1-0.8c0-0.2,0-0.3,0-0.5c0-0.2,0-0.4,0.1-0.6c0-0.3,0-0.5,0.1-0.8c0,0,0-0.1,0-0.1v0 M119.4,45.4
		c0,0.4,0,0.8,0.1,1.1c0,0.1,0,0.2,0,0.3c0,0,0,0.1,0,0.2c0,0,0,0,0,0v0c0.1,0.6,0.1,0.3,0.1-1c-0.1-2.1-0.2-2.7-0.2-1v0
		c0,0.1,0,0.2,0,0.2C119.4,45.3,119.4,45.4,119.4,45.4 M260.4,44.6c0,0-0.1-0.1-0.1-0.1c0,0-0.1-0.1-0.1-0.1
		c-0.1-0.1-0.1-0.1-0.2-0.2c-0.3-0.2-0.5-0.3-0.5-0.3c0,0,0.3,0.3,0.7,0.6s0.7,0.5,0.7,0.4C260.8,45,260.7,44.8,260.4,44.6z
		 M135.3,43c-0.1,0.1-0.2,0.2-0.3,0.3l-0.7,0.7l0.7-0.7c0.4-0.4,0.7-0.7,0.7-0.7c0,0,0-0.1-0.1,0C135.7,42.6,135.5,42.8,135.3,43
		L135.3,43 M258.2,42.7C258.2,42.6,258.1,42.6,258.2,42.7c-0.1-0.1-0.1-0.1-0.1-0.1s0,0,0,0c-0.1,0-0.1-0.1-0.2-0.2
		c-0.1-0.1-0.1-0.1-0.2-0.2h0c-0.1-0.1-0.2-0.2-0.3-0.3h0c0,0-0.1-0.1-0.1-0.1c-0.3-0.2-0.5-0.4-0.5-0.4c0,0,0.5,0.6,1.1,1.2
		c0.6,0.6,1.2,1.2,1.2,1.2C259.2,43.7,258.7,43.2,258.2,42.7 M275.7,41.5L275.7,41.5c0.1,0,0.1,0,0.2,0c0.1,0,0.1,0,0.2-0.1h0h0
		c0.4-0.1,0.5-0.2,0.1-0.2C276.1,41.2,275.8,41.3,275.7,41.5C275.5,41.5,275.5,41.5,275.7,41.5 M264.9,41.5c0.1,0,0.1,0.1,0.2,0.1
		c0.1,0.1,0.2,0.1,0.3,0.2c0.1,0.1,0.2,0.2,0.4,0.3c0.1,0.1,0.2,0.1,0.3,0.2s0.2,0.1,0.2,0.2c0.2,0.1,0.4,0.2,0.5,0.2
		c0.2,0.1,0.2,0,0.1-0.3c-0.1-0.2-0.2-0.3-0.2-0.3c0,0,0,0,0,0c0,0,0,0.1,0,0.3c0.1,0.3,0,0.2-1.1-0.6c-0.4-0.3-0.9-0.6-1.1-0.7
		c-0.3-0.1-0.3-0.1,0.1,0.1C264.6,41.2,264.7,41.3,264.9,41.5 M254,36.7c-0.2,0.2-0.3,0.7,0,0.9c0.1,0,0.1,0,0.1-0.2
		c0-0.2,0-0.4,0.1-0.6l0,0c0,0,0-0.1,0.1-0.1C254.4,36.5,254.3,36.5,254,36.7z M139.6,36.8C139.6,36.8,139.7,36.8,139.6,36.8
		c0,0,0.1,0.1,0.1,0.1c0.1,0.1,0.1,0.2,0.1,0.4c0,0.3,0,0.3,0.1,0c0.1-0.4-0.4-1-0.8-0.9c-0.3,0-0.3,0,0,0.1c0.2,0,0.3,0.1,0.4,0.2
		h0c0,0,0,0,0,0C139.6,36.7,139.6,36.8,139.6,36.8 M131.6,34.9L131.6,34.9C131.6,34.9,131.6,34.9,131.6,34.9c-0.1,0-0.1,0.1-0.2,0.2
		c-0.2,0.4-0.3,0.6-0.4,0.7c0,0,0,0.1,0,0.1c-0.1,0.1,0,0.1,0.1-0.1C131.4,35.4,131.7,35,131.6,34.9 M264.6,35L264.6,35
		C264.6,35,264.6,35,264.6,35c0.1,0,0.1,0,0.1,0h0c0,0,0,0,0,0v0c0.1-0.1,0.1-0.2,0.1-0.4c0-0.1,0-0.1,0-0.2c0,0,0,0,0,0
		c0-0.1-0.1,0-0.1,0.2C264.5,34.7,264.5,34.8,264.6,35L264.6,35C264.5,34.9,264.5,34.9,264.6,35C264.5,35,264.5,35,264.6,35
		C264.6,35,264.6,35,264.6,35C264.6,35,264.6,35,264.6,35 M129.2,34.8c0,0.1,0,0.1,0.1,0.1c0,0,0.1,0,0.1-0.1c0-0.1,0-0.3,0-0.5
		c-0.1-0.6-0.1-0.9-0.1-0.8c0,0,0,0,0,0c0,0,0,0.1,0,0.2c0,0,0,0.1,0,0.1c0,0,0,0,0,0c0,0.1,0,0.2,0,0.2
		C129.2,34.4,129.2,34.6,129.2,34.8C129.2,34.7,129.2,34.7,129.2,34.8 M124.5,31.2C124.5,31.2,124.5,31.2,124.5,31.2
		c0.1,0.2,0.2,0.4,0.2,0.6c0,0,0,0,0,0s0,0,0,0c0,0.4-0.1,0.2-0.2-0.4C124.4,31.1,124.4,31,124.5,31.2 M129.6,31.5L129.6,31.5
		L129.6,31.5l0.1-0.4c0.1-0.3,0.1-0.8,0.1-1l0-0.2v0v0l0-0.2l0,0.4c0,0.2-0.1,0.7-0.1,1l-0.1,0.6L129.6,31.5 M269.7,29.8
		C269.7,29.8,269.7,29.8,269.7,29.8C269.7,29.9,269.7,29.9,269.7,29.8c0.1-0.1,0.1-0.4,0.1-0.5v0v0v0c0-0.2-0.1,0-0.1,0.3
		C269.7,29.7,269.7,29.7,269.7,29.8 M124.1,28.7c0,0-0.1,0.2-0.1,0.4c0,0.4,0,0.5,0.1,0.3c0,0,0-0.1,0-0.2
		C124.2,29.1,124.1,28.9,124.1,28.7C124.1,28.7,124.1,28.7,124.1,28.7 M269.9,27.9c0-0.2-0.1,0-0.1,0.3s0,0.5,0.1,0.3
		C270,28.3,270,28.1,269.9,27.9z M264,27.4C264,27.4,264,27.3,264,27.4c0-0.1,0-0.1,0-0.1c0-0.2-0.1,0-0.1,0.3s0,0.4,0.1,0.3
		c0-0.1,0-0.1,0-0.2c0,0,0-0.1,0-0.1c0,0,0,0,0,0C264,27.5,264,27.4,264,27.4 M257,27.8c0-0.1-0.2-0.3-0.4-0.5l-0.1-0.1l0,0
		l-0.4-0.4l0.4,0.5C256.7,27.6,256.9,27.8,257,27.8L257,27.8 M130.1,25.8C130.1,25.7,130.1,25.7,130.1,25.8
		c-0.1,0.1-0.1,0.2-0.1,0.4c0,0.4,0,0.5,0.1,0.3C130.2,26.2,130.2,25.9,130.1,25.8z M252.6,47.9c0.1-23,0.1-23.7,0.4-23.7
		c0,0,0.1,0,0.1,0c0,0,0,0,0,0c0.1,0,0.2,0.1,0.3,0.1c0.1,0.1-0.1,0.1-0.2,0.1c-0.3-0.1-0.3,0.2-0.4,34.9c0,27.6-0.1,35.1-0.3,35.4
		c-0.2,0.4-0.2,0.3-0.1-0.3c0-0.1,0-1.3,0-3.2c0-0.2,0-0.3,0-0.5 M141.4,95.4c0,0.4,0,0.7,0,0.8c-0.1,0.3-0.2-0.3-0.5-3.3
		c-0.1-1.1-0.2-13.2-0.2-35.1c0-30.1,0-33.4-0.3-33.3c-0.1,0-0.2,0-0.2-0.1c0,0,0,0,0-0.1v0c0.1-0.2,0.2-0.3,0.3-0.1c0,0,0,0,0,0
		c0.3,0.7,0.3,6.3,0.3,33.4c0,28.1,0,33.4,0.2,35.6 M136.3,25.4c-0.2,0.3-0.4,0.5-0.5,0.5c-0.1,0,0.1-0.3,1.1-1.4
		c0.5-0.6,0.6-0.6,0.2-0.1c-0.1,0.1-0.1,0.1-0.2,0.2c0,0-0.1,0.1-0.1,0.1c-0.1,0.1-0.1,0.1-0.2,0.2c-0.1,0.1-0.1,0.1-0.2,0.2
		c-0.1,0-0.1,0.1-0.1,0.1C136.4,25.3,136.4,25.4,136.3,25.4 M124.1,24.9c0,0.2-0.1,0.1-0.1-0.3c0-0.4,0-0.5,0.1-0.4
		c0,0.1,0,0.2,0,0.3c0,0,0,0,0,0.1c0,0,0,0.1,0,0.1C124.1,24.8,124.1,24.9,124.1,24.9C124.1,24.9,124.1,24.9,124.1,24.9 M269.8,24
		c0-0.2-0.1,0-0.1,0.4c0,0.4,0,0.6,0.1,0.4C269.8,24.5,269.8,24.2,269.8,24z M256.1,23.7c0.2,0.2,0.4,0.4,0.4,0.4
		c0,0-0.2-0.3-0.5-0.6c-0.3-0.3-0.5-0.5-0.6-0.6c0,0,0,0,0,0c0,0,0.2,0.3,0.5,0.6C255.9,23.5,256,23.6,256.1,23.7L256.1,23.7
		C256,23.7,256.1,23.7,256.1,23.7 M130.3,22.3c0-0.4-0.1-0.1-0.1,0.7c0,0.8,0,1.1,0.1,0.7C130.3,23.4,130.3,22.7,130.3,22.3z
		 M269.3,21.8c-0.1-0.2-0.1-0.2-0.1-0.1c0,0.1,0.1,0.4,0.1,0.6c0.1,0.2,0.1,0.2,0.1,0.1C269.5,22.2,269.4,22,269.3,21.8z
		 M263.8,21.3c0-0.9,0-0.2,0,1.6c0,1.8,0,2.6,0,1.7C263.8,23.8,263.8,22.3,263.8,21.3z M130.1,19.4c0-0.2-0.1,0-0.1,0.4
		c0,0.4,0,0.5,0.1,0.3C130.2,19.9,130.2,19.6,130.1,19.4z M129.6,16.3C129.6,16.3,129.6,16.3,129.6,16.3c0,0,0,0.2,0,0.3
		c0,0.2,0.1,0.3,0.1,0.4c0,0,0,0,0,0c0.1,0.2,0.1,0.2,0.1-0.1c0-0.2-0.1-0.4-0.2-0.6C129.6,16.3,129.6,16.3,129.6,16.3
		C129.6,16.3,129.6,16.3,129.6,16.3 M265.9,14.9c0,0,0.1,0.1,0.1,0.1c0,0,0.1,0.1,0.1,0.1s0.1,0.1,0.1,0.1c0,0,0,0,0,0
		c0.2,0.2,0.4,0.5,0.5,0.6c0.3,0.4,0.3,0.4,0-0.1c-0.3-0.6-0.9-1.2-1.1-1.2C265.6,14.5,265.7,14.7,265.9,14.9 M127.8,14.8
		c-0.3,0.3-0.5,0.7-0.4,0.7c0,0,0.2-0.2,0.4-0.5C128.2,14.5,128.2,14.4,127.8,14.8z M264.5,15.3C264.5,15.3,264.5,15.3,264.5,15.3
		C264.5,15.4,264.6,15.3,264.5,15.3c0.1-0.2,0.3-0.5,0.5-0.6c0.1,0,0.1-0.1,0.1-0.1c0.3-0.3,0.1-0.2-0.3,0.1
		c-0.2,0.2-0.4,0.4-0.4,0.5C264.5,15.2,264.5,15.3,264.5,15.3"/>
	<path id="path4" class="st3" d="M168.4,136.4c0,0-0.1-0.1-0.1-0.1c-0.1-0.1-0.3-0.2-0.4-0.2c-0.1,0-0.1,0-0.2,0
		c-0.1,0-0.1,0.1,0.1,0.2h0c0,0,0,0,0.1,0c0,0,0,0,0.1,0c0,0,0.1,0,0.1,0c0,0,0,0,0,0c0,0,0,0,0.1,0h0l0,0
		C168.5,136.6,168.6,136.6,168.4,136.4z M242.7,119.7c-0.1,0-0.1-0.1-0.2-0.1c-0.2-0.1-0.3-0.1-0.6,0.1c-0.1,0.1-0.4,0.3-0.7,0.6
		c0,0-0.1,0.1-0.1,0.1c-0.9,0.8-2.1,2.3-3.1,3.5c0,0-0.1,0.1-0.1,0.1c-0.3,0.4-0.6,0.8-0.8,1.1c-0.2,0.3-0.4,0.7-0.7,1.2
		c-0.1,0.2-0.3,0.5-0.4,0.7c-0.1,0.1-0.1,0.2-0.2,0.4c-0.4,0.9-0.8,1.6-0.7,1.5c0.1,0,0.2-0.3,0.5-0.7c0,0,0,0,0,0c0,0,0,0,0-0.1
		c0.1-0.2,0.2-0.3,0.3-0.5c0.3-0.7,0.7-1.3,1.1-2c0.1-0.2,0.3-0.4,0.4-0.7c0,0,0,0,0-0.1c0-0.1,0.1-0.1,0.1-0.1
		c0.1-0.1,0.2-0.2,0.2-0.3c0.1-0.1,0.1-0.2,0.2-0.3c0.1-0.1,0.1-0.2,0.2-0.2c1.1-1.5,2.2-2.8,3.1-3.5c0.1-0.1,0.1-0.1,0.2-0.2
		c0,0,0.1,0,0.1,0c0.1,0,0.1-0.1,0.2-0.1c0.1-0.1,0.3-0.2,0.4-0.2c0,0,0.1,0,0.1,0c0,0,0.1,0,0.1,0c0,0,0,0,0.1,0s0,0,0.1,0h0
		C243,119.9,243,119.8,242.7,119.7z M158.5,128.4C158.5,128.4,158.5,128.4,158.5,128.4c-0.3-0.6-0.6-1.3-1-2c0-0.1-0.1-0.2-0.1-0.2
		c0-0.1-0.1-0.2-0.1-0.3c-0.2-0.3-0.4-0.6-0.6-1c-1.2-1.8-2.4-3.3-3.5-4.3c0,0,0,0,0,0c-0.9-0.8-1.7-1.2-2-1
		c-0.3,0.2-0.3,0.2,0.1,0.2h0c0,0,0,0,0,0c0,0,0.1,0,0.1,0c0,0,0.1,0,0.1,0c0,0,0.1,0,0.1,0h0c0,0,0,0,0,0c0.5,0.1,1,0.5,2,1.6
		c0.1,0.1,0.2,0.2,0.3,0.3c0.1,0.1,0.2,0.2,0.2,0.3c0.1,0.1,0.2,0.2,0.3,0.3c0.2,0.3,0.5,0.6,0.8,1c0.2,0.2,0.3,0.4,0.5,0.6
		c0.1,0.1,0.2,0.2,0.2,0.4c0.1,0.2,0.2,0.3,0.3,0.5c0.1,0.2,0.2,0.3,0.3,0.5c0.1,0.2,0.2,0.3,0.3,0.5c0.3,0.5,0.6,0.9,0.8,1.3
		c0,0.1,0.1,0.1,0.1,0.2c0,0.1,0.1,0.1,0.1,0.2c0,0,0,0.1,0.1,0.1c0,0.1,0.1,0.1,0.1,0.2c0.1,0.2,0.1,0.3,0.2,0.4c0,0,0,0,0,0.1
		c0,0,0,0,0,0.1c0,0,0,0,0,0c0,0.1,0,0.1,0,0.2c0,0,0,0.1,0,0.1c0,0.1,0.1,0.1,0.1,0.2c0,0,0.1,0.1,0.1,0.1c0,0.1,0.1,0.1,0.1,0.1
		C159,129.6,158.8,129.2,158.5,128.4z M141.7,23.7C141.7,23.7,141.7,23.7,141.7,23.7c-0.1,0-0.2,0-0.2,0c-0.1,0-0.2,0.1-0.3,0.1
		c-0.2,0.1-0.3,0.1-0.3,0.2v0c0,0,0,0,0,0c0,0.1,0.3,0,0.5-0.1c0.1,0,0.1,0,0.1-0.1c0.1,0,0.2-0.1,0.3-0.1c0,0,0,0,0,0
		C141.8,23.8,141.8,23.8,141.7,23.7C141.8,23.7,141.8,23.7,141.7,23.7z M249.7,16.8c-0.1-0.1-0.2-0.2-0.3-0.3
		c-0.3-0.2-0.4-0.2-0.3,0.1c0,0,0,0,0,0.1c0,0,0,0,0,0.1c0,0.1,0,0.1,0.1,0.1c0.1,0.2,0.3,0.3,0.4,0.4c0.1,0,0.1,0,0.2,0
		C249.9,17.2,249.9,17,249.7,16.8z M144.6,16.5C144.6,16.5,144.6,16.5,144.6,16.5C144.6,16.5,144.6,16.5,144.6,16.5
		c-0.1-0.1-0.2-0.1-0.3,0.1c0,0-0.1,0.1-0.1,0.1c0,0-0.1,0.1-0.1,0.1c-0.1,0.2-0.2,0.3-0.1,0.3c0.1,0,0.2,0,0.3-0.1
		c0,0,0.1-0.1,0.1-0.1c0,0,0.1-0.1,0.1-0.1c0.1-0.1,0.1-0.1,0.1-0.2C144.6,16.6,144.6,16.6,144.6,16.5L144.6,16.5z M252.4,23.8
		c-0.3-0.2-0.7-0.5-0.9-0.5c0,0,0,0,0,0c0,0,0,0-0.1,0c-0.3-0.1-1-0.5-1.8-0.9c-0.2-0.1-0.4-0.2-0.5-0.3c0,0-0.1,0-0.1-0.1
		c-0.4-0.2-0.8-0.5-1.1-0.6c-0.5-0.3-1-0.7-1.5-1.1c-0.1,0-0.1-0.1-0.2-0.2h0l-0.1-0.1l0,0c0,0,0,0-0.1-0.1
		c-0.1-0.1-0.1-0.1-0.2-0.2c0,0-0.1-0.1-0.1-0.1c-0.2-0.2-0.3-0.3-0.5-0.5c-0.2-0.2-0.3-0.3-0.5-0.5c-0.1-0.1-0.2-0.2-0.3-0.3
		c0,0,0,0,0,0c0,0-0.1-0.1-0.1-0.1c0,0-0.1-0.1-0.1-0.1c0,0-0.1-0.1-0.1-0.1c-0.1-0.1-0.1-0.1-0.1-0.2c0,0,0-0.1-0.1-0.1
		c0,0,0-0.1-0.1-0.1c-0.1-0.1-0.1-0.2-0.2-0.3c0-0.1-0.1-0.1-0.1-0.2c-0.1-0.1-0.1-0.2-0.2-0.4c-0.1-0.1-0.1-0.2-0.2-0.4
		c-0.1-0.2-0.2-0.3-0.3-0.5c0,0,0,0,0-0.1c0,0,0,0,0-0.1c0-0.1-0.1-0.1-0.1-0.2c0-0.1-0.1-0.2-0.1-0.3c-0.2-0.4-0.4-0.7-0.5-1.1
		c-0.1-0.1-0.1-0.3-0.2-0.4c0,0,0-0.1,0-0.1c-0.1-0.1-0.1-0.3-0.2-0.4c-0.1-0.4-0.2-0.7-0.3-0.9l-0.1-0.5l2,0.1
		c1.1,0,2.1,0.2,2.3,0.3c0.2,0.1,0.6,0.3,1,0.5c0.1,0.1,0.3,0.2,0.5,0.2c0.1,0.1,0.3,0.2,0.5,0.3c0.2,0.1,0.3,0.2,0.5,0.3
		c0,0,0.1,0,0.1,0.1c0.1,0.1,0.2,0.2,0.4,0.3h0c0,0,0.1,0.1,0.1,0.1c0.5,0.3,0.9,0.7,1.3,1.1c0.6,0.6,1.2,1.3,1.6,1.9
		c0.1,0.2,0.2,0.3,0.3,0.5c0,0,0,0.1,0.1,0.1c0,0,0,0.1,0.1,0.1c0,0,0,0.1,0.1,0.1c0,0,0,0.1,0.1,0.1c0,0,0,0,0,0
		c0.1,0.1,0.1,0.1,0.1,0.2c0,0,0,0.1,0.1,0.1l0,0c0.1,0.1,0.2,0,0.2-0.3c0-0.3-0.1-0.4-0.1-0.3c0,0-0.1,0-0.2-0.1
		c-0.1-0.1-0.3-0.3-0.5-0.6c0-0.1-0.1-0.1-0.1-0.2c-0.2-0.3-0.4-0.5-0.5-0.8c-1.1-1.5-2.6-2.7-4.2-3.5c0,0,0,0-0.1,0
		c-0.3-0.2-0.6-0.3-0.9-0.4c-0.4-0.2-0.9-0.3-1.5-0.4c-0.1,0-0.3,0-0.4-0.1c-0.1,0-0.3,0-0.4-0.1c-0.7-0.1-1.3-0.1-1.8-0.1
		c-0.1,0-0.2,0-0.3,0c-0.1,0-0.2,0-0.2,0c0,0-0.1,0-0.1,0c0,0,0,0-0.1,0c0,0-0.1,0-0.1,0c0,0-0.1,0.1-0.1,0.1c0,0,0,0.1,0,0.1
		c0,0,0,0,0,0.1c0,0.1,0,0.2,0,0.3c0,0.1,0,0.2,0.1,0.3c0,0.1,0.1,0.2,0.1,0.3c0.1,0.2,0.3,0.7,0.5,1.2c0.5,1.2,1,2.2,1.5,3.1
		c0.8,1.3,1.7,2.4,2.8,3.3c0.4,0.3,0.8,0.7,1.3,1c0.2,0.2,0.5,0.3,0.7,0.4c0.2,0.2,0.5,0.3,0.7,0.4c0.2,0.1,0.4,0.2,0.6,0.4
		c0.3,0.2,0.7,0.3,1,0.5c0.5,0.2,0.9,0.4,1.2,0.6c0.4,0.2,0.6,0.4,0.7,0.4c0.1,0.1,0.1,0.1,0.2,0C252.8,24.2,252.6,24,252.4,23.8z
		 M152.6,12c0-0.2-0.2-0.4-0.6-0.4c-0.1,0-0.2,0-0.3,0c-0.5,0-1.2,0-2.3,0.2c-0.5,0.1-1.1,0.2-1.7,0.5c-0.1,0-0.2,0.1-0.2,0.1
		c-1.1,0.5-2.2,1.2-3.2,1.9c0,0,0,0-0.1,0c-0.3,0.3-0.6,0.5-0.9,0.8c-0.2,0.2-0.4,0.5-0.6,0.7c-0.1,0.1-0.1,0.2-0.2,0.3
		c-0.2,0.2-0.4,0.5-0.5,0.8c-0.2,0.4-0.5,0.7-0.6,1c-0.3,0.5-0.4,0.8-0.3,0.8c0,0,0,0,0,0c0,0,0,0,0-0.1c0,0,0,0,0,0
		c0.1-0.1,0.2-0.3,0.3-0.5c0,0,0-0.1,0-0.1c0-0.1,0.1-0.1,0.1-0.2c0-0.1,0.1-0.2,0.2-0.3c0.7-1.2,1.7-2.3,2.9-3.3
		c0.2-0.1,0.3-0.3,0.5-0.4c0.1-0.1,0.2-0.1,0.3-0.2c0.5-0.3,0.9-0.6,1.4-0.9c0.8-0.4,1.9-0.7,3-0.8h0c0,0,0,0,0.1,0
		c1.2-0.1,2.1-0.1,2.2,0.3c0,0,0,0,0,0c0,0,0,0,0,0.1c0,0,0,0,0,0.1c0,0.1,0,0.1,0,0.2c0,0,0,0.1-0.1,0.2c0,0,0,0,0,0
		c0,0.1,0,0.1-0.1,0.2c0,0.1-0.1,0.2-0.1,0.3v0c0,0.1-0.1,0.2-0.1,0.4c0,0.1-0.1,0.1-0.1,0.2c0,0.1-0.1,0.3-0.2,0.4
		c-0.6,1.3-1.4,2.9-1.6,3.2c0,0,0,0-0.1,0.1c0,0-0.1,0.1-0.1,0.2c-0.1,0.1-0.2,0.3-0.3,0.5c-0.1,0.1-0.2,0.2-0.3,0.4
		c0,0.1-0.1,0.1-0.2,0.2c-0.1,0.1-0.2,0.3-0.4,0.4c-1.8,1.9-5.3,4.3-6.5,4.3c-0.1,0-0.2,0.1-0.2,0.2c0,0.1,0.1,0.1,0.3,0.1
		c0,0,0,0,0,0c0.5-0.1,1.7-0.8,2.9-1.5c0,0,0.1,0,0.1-0.1c0.2-0.2,0.5-0.3,0.7-0.5c0.3-0.2,0.6-0.4,0.9-0.6c0,0,0.1-0.1,0.1-0.1
		c0.5-0.4,1-0.8,1.3-1.1c0.3-0.4,0.7-0.8,1-1.2c0.2-0.2,0.3-0.4,0.5-0.6c0.1-0.1,0.1-0.2,0.2-0.3c0.4-0.7,0.8-1.4,1.3-2.4
		c0-0.1,0.1-0.1,0.1-0.2c0-0.1,0.1-0.2,0.1-0.3c0.2-0.4,0.4-0.9,0.6-1.4c0.1-0.2,0.1-0.3,0.2-0.5c0-0.1,0.1-0.2,0.1-0.3
		c0.1-0.2,0.1-0.3,0.1-0.4C152.6,12.1,152.6,12,152.6,12z"/>
</g>
</svg>
